<svg width="41" height="41" viewBox="0 0 41 41" fill="none" xmlns="http://www.w3.org/2000/svg">
<circle cx="20.2409" cy="20.2409" r="20.2409" fill="#E5F1FF"/>
<g clip-path="url(#clip0_198_1400)">
<path d="M11.3053 7.76402C14.0458 7.46268 16.5308 9.93138 16.8443 9.96615C19.132 9.29392 21.4312 9.43301 23.7304 9.9082C25.751 8.22763 28.7121 6.75568 31.1275 8.6101C33.4964 10.4182 33.3687 14.2082 31.6617 16.4219C31.801 17.5577 32.8461 17.7432 31.441 18.114C32.4397 20.4089 32.4281 22.9819 33.2525 25.3231L33.1713 25.4043L31.7081 24.5582L29.6179 28.1627L29.5947 27.1776C29.5947 27.1776 29.5134 27.1428 29.4553 27.1544C29.2927 27.1544 27.249 29.5304 27.0864 29.5188C26.9238 29.5188 27.0051 28.8581 26.6916 28.9045C26.5058 28.9277 25.031 30.2721 23.6375 31.1066C22.5924 31.7325 21.4776 32.2425 20.3629 32.7408C19.91 32.7872 17.6107 31.5702 17.0882 31.2805C15.2883 30.2374 13.9064 28.8697 13.6974 28.9161C13.5697 28.9393 13.5464 29.5188 13.4187 29.5304C13.2445 29.542 11.3169 27.3978 10.9917 27.166L10.8175 28.1859L8.72731 24.5814L7.26416 25.3695C7.7751 23.8396 7.90284 22.2286 8.25121 20.6639C8.55313 19.2962 9.0873 18.2531 9.04085 18.1256C8.87827 17.6504 7.7751 18.6936 8.82021 16.4335C6.53258 13.7677 7.31061 8.19286 11.3053 7.76402Z" fill="white"/>
<path d="M11.5375 8.43637C13.2793 8.30888 15.2651 9.61857 16.5656 10.6965C19.2016 10.0822 21.2106 9.98945 23.8466 10.6965C25.6581 9.21291 28.2709 7.50915 30.5701 9.06224C32.881 10.6385 32.6371 14.498 30.8256 16.364C30.7443 16.8972 31.9752 17.4419 30.4888 17.5462C31.4526 19.5513 31.6733 21.7767 32.1842 23.9208C32.0681 24.1179 31.4294 23.295 31.3133 23.3877C31.1391 24.5235 30.3959 25.4044 29.8501 26.378C29.676 25.4392 29.6295 26.0071 29.0837 26.575C28.5379 27.1545 27.9457 27.6992 27.3651 28.2324C27.2374 27.1429 26.9703 27.9079 25.7858 28.8003C24.0904 30.0752 22.2673 31.1879 20.3048 32.0108C17.7385 31.072 15.3696 29.5073 13.3606 27.6761C13.0123 27.6645 13.4419 28.4642 12.8497 28.0701C12.0368 27.5254 10.9685 25.868 10.8175 25.868C10.6317 25.868 10.8291 26.4243 10.6201 26.3432C10.4692 26.2852 9.20342 24.1411 9.12213 23.3877L8.29766 23.9788C8.82021 21.8462 9.00601 19.6093 9.99306 17.6042C9.92338 17.1869 8.72731 18.0794 9.6563 16.364C7.34545 14.1735 7.78672 8.72612 11.5375 8.43637Z" fill="#141414"/>
<path d="M17.9707 28.0584C18.1914 28.0584 18.2727 28.4408 18.3075 28.4524C18.3888 28.4756 18.4585 28.1047 19.8868 28.0584C21.6402 28.0004 21.977 28.4293 22.0931 28.3945C22.186 28.3597 22.1744 28.0584 22.3718 28.0584C22.4299 28.0584 23.0337 28.4408 22.906 28.8233C22.8131 29.1131 22.6621 28.7306 22.5924 28.8001C22.5228 28.8697 22.3834 29.2058 22.2673 29.3681C22.0931 29.6115 21.2106 30.0519 20.897 30.0982C19.9564 30.2257 19.2481 30.1098 18.4701 29.6462C18.3888 29.5999 18.2959 29.4724 18.2843 29.4724C18.0056 29.1363 17.8894 28.8233 17.843 28.8001C17.7036 28.7306 17.5991 29.0088 17.5295 28.9392C17.3437 28.7654 17.6572 28.0816 17.9475 28.07" fill="white"/>
<path d="M21.977 26.6443L23.9279 26.7255C23.6492 27.05 23.4401 27.2238 23.2195 27.3166C22.8015 27.4788 22.4415 27.4325 22.0931 27.3745C21.6867 27.305 20.5835 27.1311 20.5022 26.6559C20.3977 26.0648 22.035 25.7519 22.4299 24.3958C22.5576 23.967 22.5228 23.5382 22.4647 23.2716C22.337 23.5845 22.2673 23.7352 22.1976 23.8163C21.6867 24.3842 18.2378 24.5001 18.0288 23.2716C17.7617 25.0797 18.5397 24.8015 19.5268 25.891C19.6894 26.0764 20.119 26.4937 20.0958 26.6791C20.0145 27.2702 17.4946 27.7338 16.7398 27.05C16.0431 26.4125 17.1579 26.9109 18.4004 26.5748C17.5643 26.1575 15.7296 26.3546 15.8341 25.0797C16.0663 25.0797 18.0056 25.8562 18.0056 25.6128C17.3785 25.2187 16.4263 24.2915 15.8573 24.2568C15.6715 23.8743 16.5308 22.4023 16.2289 22.3676C15.1605 23.7931 12.6523 24.8826 14.5683 26.6212C14.5915 26.853 13.6974 26.3314 13.5813 26.2503C12.42 25.4621 12.5826 24.5929 12.5594 26.0301C11.7814 25.1956 11.3633 23.6309 11.1775 22.5066C10.5272 22.5414 10.4459 24.222 10.3298 23.0166C10.1208 20.8029 11.0498 17.8822 12.0833 15.9118C9.935 15.6337 10.4227 13.2577 9.91178 14.8687C9.02924 13.3852 9.51696 10.2558 11.6072 10.1399C12.9542 10.0588 14.7657 11.1599 15.8457 11.948C18.7371 11.4612 21.7099 11.4148 24.6014 11.948C26.1342 10.8585 29.0024 8.95773 30.4424 11.1251C31.1739 12.2262 31.1856 13.7097 30.5817 14.8687C30.1056 13.3272 30.4772 15.4714 28.3522 15.9698C29.3508 17.3838 30.5701 21.9271 30.1056 23.4107C30.0127 23.712 29.8037 22.6921 29.3392 22.4255C29.1999 23.2484 28.6657 25.1492 28.178 25.7171C27.6554 26.343 27.9341 25.8098 27.9573 25.6012C28.0154 24.7088 27.2606 26.3546 25.9484 26.7023C25.7278 26.5748 26.889 25.9373 26.5406 24.871C26.4245 24.5001 24.5433 22.8312 24.1369 22.3676L24.671 24.1409L22.3602 25.6012C22.3602 25.9373 24.4156 25.0101 24.5317 25.0101C24.822 25.0217 24.6478 25.6592 24.253 25.8562" fill="white"/>
<path d="M28.1547 11.241C28.1547 11.241 28.1779 11.3337 28.1779 11.3917C28.1199 11.7046 27.8876 12.0987 27.7947 12.4232C27.7134 12.7246 27.8876 12.6666 28.3173 12.7362C29.0953 12.8752 28.2592 13.3852 28.3869 13.814C28.445 14.0574 28.7818 14.1386 28.8747 14.324C28.8979 14.3588 28.9095 14.4051 28.8863 14.4515C28.7237 14.7065 28.1895 14.4515 27.8992 14.3936C27.7134 14.3472 27.4928 14.2777 27.307 14.2197C25.6697 13.6981 25.8439 13.1766 27.2025 11.948C27.4464 11.7278 27.7367 11.4728 27.9689 11.2874C28.0386 11.241 28.0966 11.2178 28.1315 11.241H28.1547Z" fill="#141414"/>
<path d="M12.2574 11.241C12.2574 11.241 12.2342 11.3337 12.2342 11.3917C12.2923 11.7046 12.5245 12.0987 12.6174 12.4232C12.6987 12.7246 12.5245 12.6666 12.0948 12.7362C11.3168 12.8752 12.1529 13.3852 12.0252 13.814C11.9671 14.0574 11.6304 14.1386 11.5375 14.324C11.5142 14.3588 11.5026 14.4051 11.5258 14.4515C11.6884 14.7065 12.2226 14.4515 12.5129 14.3936C12.6987 14.3472 12.9193 14.2777 13.1051 14.2197C14.7425 13.6981 14.5683 13.1766 13.2096 11.948C12.9658 11.7278 12.6755 11.4728 12.4432 11.2874C12.3735 11.241 12.3155 11.2178 12.2806 11.241H12.2574Z" fill="#141414"/>
<path d="M17.4597 15.5873C17.9126 15.7611 17.9242 16.5261 17.8778 16.9781C17.8197 17.4649 17.483 18.2183 16.9023 18.0096C16.1243 17.5576 16.3682 15.483 17.4365 15.5873H17.4481H17.4597Z" fill="#141414"/>
<path d="M28.4451 20.1887C28.8979 20.0265 28.9328 20.6755 28.8979 20.9769C28.8283 21.6491 28.5264 22.4372 28.0967 22.8777C27.4348 23.4687 27.4464 22.0895 27.5625 21.6375C27.6554 21.1044 27.9806 20.3742 28.4335 20.1887H28.4451Z" fill="#141414"/>
<path d="M22.9291 15.657C23.1614 15.4947 23.4401 15.6338 23.6143 15.8308C24.0323 16.3176 24.1368 17.3144 23.7304 17.8707C23.2659 18.427 22.7085 17.6853 22.6272 17.1753C22.5111 16.7117 22.5692 15.9583 22.9175 15.6686H22.9291V15.657Z" fill="#141414"/>
<path d="M11.8162 20.2697C12.5827 20.2118 12.9194 21.4751 12.9194 22.1358C12.9078 22.4719 12.8962 22.9703 12.5246 23.0746C11.9556 23.0514 11.4563 21.9735 11.4911 21.2433C11.5143 20.9304 11.5027 20.3972 11.8046 20.2697H11.8162Z" fill="#141414"/>
<path d="M16.0663 13.3273C16.705 13.2114 17.1927 13.7098 16.5773 14.1734C16.1941 14.4515 15.4044 14.579 15.1954 14.0922C15.1257 13.6518 15.6483 13.3968 16.0315 13.3273H16.0547H16.0663Z" fill="#141414"/>
<path d="M24.0672 13.3273C24.404 13.2925 24.8685 13.4316 25.1123 13.6982C25.4723 14.0691 25.1588 14.4515 24.6943 14.4284C24.4156 14.4284 24.102 14.3009 23.893 14.127C23.475 13.7909 23.5795 13.3736 24.0324 13.3273H24.0556H24.0672Z" fill="#141414"/>
<path d="M13.1051 18.0676C13.6393 18.3226 13.0703 19.3425 12.5593 19.1687C12.0368 18.8905 12.5709 17.9401 13.0819 18.0676H13.0935H13.1051Z" fill="#141414"/>
<path d="M27.3884 18.056C27.9225 17.9053 28.3289 18.7862 27.8645 19.076C27.3535 19.3193 26.7845 18.2762 27.3651 18.056H27.3767H27.3884Z" fill="#141414"/>
<path d="M14.1038 21.6492C14.4406 21.4058 15.2883 22.1823 15.1025 22.5416C14.8354 22.8777 13.86 22.0432 14.1038 21.6607V21.6492Z" fill="#141414"/>
<path d="M26.32 21.5099C26.8077 21.7417 26.0181 22.7037 25.5652 22.5299C25.0891 22.2517 25.902 21.3245 26.2968 21.4983H26.3084L26.32 21.5099Z" fill="#141414"/>
<path d="M18.2726 11.9365C19.0391 11.809 18.981 12.6667 18.2726 12.7014C17.692 12.713 17.7036 12.064 18.2494 11.9365H18.2726Z" fill="#141414"/>
<path d="M21.7215 12.0292C21.8724 11.8901 22.1743 11.9133 22.3485 12.0292C22.5808 12.1567 22.6969 12.4812 22.4066 12.6087C22.1047 12.7941 21.3963 12.4001 21.6982 12.0408H21.7098L21.7215 12.0292Z" fill="#141414"/>
<path d="M25.6813 16.2248C25.96 15.8887 26.9819 16.4451 26.4942 16.7928C26.1923 17.0014 25.4259 16.6073 25.6697 16.2364L25.6813 16.2248Z" fill="#141414"/>
<path d="M14.6612 16.2364C15.1954 16.4798 14.4174 16.9782 14.069 16.8739C13.7787 16.8044 13.7903 16.5494 14.0226 16.3871C14.1851 16.2596 14.4522 16.1669 14.638 16.2364H14.6612Z" fill="#141414"/>
<path d="M17.9824 14.324C18.261 14.0343 18.9462 14.5211 18.6326 14.8572C18.3656 15.1006 17.7037 14.6949 17.9707 14.3472H17.9824V14.324Z" fill="#141414"/>
<path d="M22.1047 14.2314C22.3021 14.1271 22.5692 14.2314 22.5576 14.4632C22.5576 14.7414 22.186 15.0543 21.8957 14.9152C21.6054 14.7414 21.8492 14.3357 22.0931 14.2314H22.1163H22.1047Z" fill="#141414"/>
<path d="M18.981 13.0493C19.5384 12.9449 19.55 13.6751 19.0042 13.6867C18.5862 13.6867 18.5978 13.1536 18.9578 13.0493H18.981Z" fill="#141414"/>
<path d="M21.315 13.0608C21.7331 13.026 22.0234 13.6171 21.4892 13.6867C21.0828 13.7214 20.7809 13.1535 21.2918 13.0608H21.315Z" fill="#141414"/>
<path d="M21.0596 14.4632C21.1525 14.44 21.1873 14.4632 21.2454 14.5096C21.408 14.6834 21.2919 15.0427 21.0712 15.1354C20.897 15.2166 20.7693 15.0311 20.7925 14.8689C20.7925 14.7182 20.897 14.5327 21.0364 14.4748H21.0596V14.4632Z" fill="#141414"/>
<path d="M19.19 14.4398C19.4919 14.2776 19.8287 14.9498 19.5732 15.1352C19.2713 15.2512 18.981 14.6601 19.1784 14.4514H19.19V14.4398Z" fill="#141414"/>
<path d="M25.8787 18.2532C25.9948 18.2532 26.0993 18.2532 26.2155 18.2532C26.3664 18.3575 25.5303 20.0612 24.9729 20.4553C23.9975 21.1275 23.2892 20.4669 22.964 20.6523C22.5808 21.2782 22.5227 21.9736 22.3137 22.6574C21.9189 21.3246 21.6518 18.9834 23.4401 18.5429C23.5562 18.5082 25.751 18.2648 25.8671 18.2648" fill="#141414"/>
<path d="M24.973 18.8094C25.333 18.821 25.0543 19.9569 24.4621 20.2234C23.5215 20.6523 22.5809 19.6555 23.2195 19.5512C23.4169 19.5164 23.6144 19.8989 23.9511 19.8294C24.3227 19.7598 24.5433 18.7978 24.973 18.8094Z" fill="white"/>
<path d="M14.1851 18.253C16.5308 18.566 18.6094 18.1603 18.3887 21.2665C18.3539 21.6953 18.1565 22.1589 18.1333 22.5878C17.3785 19.8641 17.5062 20.8145 16.3217 20.7797C15.1605 20.7449 14.4289 19.2034 14.1735 18.2415" fill="#141414"/>
<path d="M15.3115 18.8096C16.0082 18.8559 15.9269 19.6093 16.3798 19.7716C16.6933 19.8759 17.4714 19.2616 17.4249 19.8527C17.4017 20.1424 15.2882 21.1276 15.3115 18.8096Z" fill="white"/>
</g>
<defs>
<clipPath id="clip0_198_1400">
<rect width="26" height="25" fill="white" transform="translate(7.24097 7.74072)"/>
</clipPath>
</defs>
</svg>
