<svg width="26" height="25" viewBox="0 0 26 25" fill="none" xmlns="http://www.w3.org/2000/svg">
<path d="M4.06428 0.0232985C6.80479 -0.278046 9.28983 2.19066 9.60336 2.22543C11.891 1.5532 14.1902 1.69228 16.4895 2.16748C18.51 0.486905 21.4712 -0.985046 23.8865 0.869381C26.2554 2.67745 26.1277 6.46743 24.4207 8.68116C24.56 9.81699 25.6051 10.0024 24.2001 10.3733C25.1987 12.6682 25.1871 15.2412 26.0116 17.5824L25.9303 17.6635L24.4671 16.8175L22.3769 20.422L22.3537 19.4368C22.3537 19.4368 22.2724 19.4021 22.2143 19.4137C22.0518 19.4137 20.008 21.7896 19.8454 21.778C19.6829 21.778 19.7641 21.1174 19.4506 21.1638C19.2648 21.1869 17.7901 22.5314 16.3966 23.3659C15.3515 23.9918 14.2367 24.5017 13.1219 25.0001C12.669 25.0465 10.3698 23.8295 9.84722 23.5398C8.04731 22.4966 6.66544 21.129 6.45642 21.1754C6.32869 21.1985 6.30546 21.778 6.17773 21.7896C6.00354 21.8012 4.0759 19.657 3.75075 19.4252L3.57657 20.4452L1.48635 16.8406L0.0231934 17.6288C0.534136 16.0989 0.661871 14.4878 1.01024 12.9232C1.31216 11.5555 1.84633 10.5124 1.79988 10.3849C1.63731 9.90971 0.534136 10.9528 1.57925 8.69275C-0.708383 6.02701 0.0696426 0.452135 4.06428 0.0232985Z" fill="white"/>
<path d="M4.29653 0.695646C6.03838 0.568154 8.02409 1.87784 9.32467 2.95573C11.9607 2.34145 13.9696 2.24873 16.6056 2.95573C18.4171 1.47219 21.0299 -0.231568 23.3291 1.32151C25.64 2.89778 25.3961 6.75731 23.5846 8.62332C23.5033 9.15647 24.7342 9.70121 23.2478 9.80552C24.2117 11.8106 24.4323 14.0359 24.9432 16.1801C24.8271 16.3771 24.1884 15.5542 24.0723 15.647C23.8981 16.7828 23.1549 17.6637 22.6092 18.6372C22.435 17.6984 22.3885 18.2663 21.8428 18.8343C21.297 19.4138 20.7047 19.9585 20.1241 20.4917C19.9964 19.4022 19.7293 20.1671 18.5449 21.0596C16.8495 22.3345 15.0263 23.4472 13.0638 24.2701C10.4975 23.3313 8.1286 21.7666 6.11967 19.9353C5.7713 19.9237 6.20095 20.7235 5.60872 20.3294C4.79586 19.7847 3.72753 18.1273 3.57657 18.1273C3.39077 18.1273 3.58818 18.6836 3.37916 18.6025C3.2282 18.5445 1.96245 16.4003 1.88117 15.647L1.05669 16.2381C1.57925 14.1055 1.76504 11.8686 2.75209 9.86347C2.68242 9.44623 1.48635 10.3387 2.41533 8.62332C0.104481 6.43278 0.54575 0.9854 4.29653 0.695646Z" fill="#141414"/>
<path d="M10.7298 20.3177C10.9504 20.3177 11.0317 20.7001 11.0665 20.7117C11.1478 20.7349 11.2175 20.364 12.6458 20.3177C14.3993 20.2597 14.736 20.6885 14.8521 20.6538C14.945 20.619 14.9334 20.3177 15.1308 20.3177C15.1889 20.3177 15.7927 20.7001 15.665 21.0826C15.5721 21.3724 15.4211 20.9899 15.3515 21.0594C15.2818 21.129 15.1425 21.4651 15.0263 21.6273C14.8521 21.8707 13.9696 22.3112 13.6561 22.3575C12.7155 22.485 12.0071 22.3691 11.2291 21.9055C11.1478 21.8591 11.0549 21.7317 11.0433 21.7317C10.7646 21.3955 10.6485 21.0826 10.602 21.0594C10.4627 20.9899 10.3582 21.268 10.2885 21.1985C10.1027 21.0247 10.4162 20.3408 10.7065 20.3292" fill="white"/>
<path d="M14.736 18.9036L16.6869 18.9847C16.4082 19.3093 16.1992 19.4831 15.9785 19.5758C15.5605 19.7381 15.2005 19.6917 14.8521 19.6338C14.4457 19.5642 13.3425 19.3904 13.2613 18.9152C13.1567 18.3241 14.7941 18.0112 15.1889 16.6551C15.3166 16.2263 15.2818 15.7974 15.2237 15.5309C15.096 15.8438 15.0263 15.9945 14.9567 16.0756C14.4457 16.6435 10.9968 16.7594 10.7878 15.5309C10.5207 17.3389 11.2988 17.0608 12.2858 18.1502C12.4484 18.3357 12.878 18.7529 12.8548 18.9384C12.7735 19.5295 10.2537 19.9931 9.49886 19.3093C8.80212 18.6718 9.9169 19.1702 11.1594 18.8341C10.3233 18.4168 8.48858 18.6139 8.59309 17.3389C8.82534 17.3389 10.7646 18.1155 10.7646 17.8721C10.1375 17.478 9.18532 16.5508 8.61632 16.516C8.43052 16.1336 9.28983 14.6616 8.98791 14.6268C7.91958 16.0524 5.41132 17.1419 7.32735 18.8804C7.35058 19.1122 6.45643 18.5907 6.3403 18.5095C5.17907 17.7214 5.34164 16.8521 5.31842 18.2893C4.54039 17.4548 4.12235 15.8902 3.93655 14.7659C3.28626 14.8007 3.20498 16.4813 3.08885 15.2759C2.87983 13.0622 3.80882 10.1414 4.84231 8.17111C2.69403 7.89295 3.18175 5.51696 2.67081 7.12799C1.78827 5.64445 2.27599 2.51511 4.36621 2.3992C5.71324 2.31807 7.52476 3.41914 8.60471 4.20727C11.4962 3.72048 14.4689 3.67412 17.3604 4.20727C18.8932 3.11779 21.7615 1.21701 23.2014 3.38437C23.933 4.48543 23.9446 5.96898 23.3408 7.12799C22.8646 5.5865 23.2362 7.73068 21.1112 8.22906C22.1098 9.64306 23.3291 14.1864 22.8646 15.67C22.7717 15.9713 22.5627 14.9514 22.0982 14.6848C21.9589 15.5077 21.4247 17.4085 20.937 17.9764C20.4144 18.6023 20.6931 18.0691 20.7164 17.8605C20.7744 16.968 20.0196 18.6139 18.7074 18.9616C18.4868 18.8341 19.648 18.1966 19.2997 17.1303C19.1835 16.7594 17.3023 15.0904 16.8959 14.6268L17.4301 16.4001L15.1192 17.8605C15.1192 18.1966 17.1746 17.2694 17.2907 17.2694C17.581 17.281 17.4069 17.9184 17.012 18.1155" fill="white"/>
<path d="M20.9137 3.5003C20.9137 3.5003 20.937 3.59303 20.937 3.65098C20.8789 3.96391 20.6467 4.35798 20.5538 4.6825C20.4725 4.98385 20.6467 4.9259 21.0763 4.99544C21.8543 5.13452 21.0182 5.64449 21.146 6.07332C21.204 6.31672 21.5408 6.39785 21.6337 6.58329C21.6569 6.61806 21.6685 6.66442 21.6453 6.71078C21.4827 6.96577 20.9486 6.71078 20.6583 6.65283C20.4725 6.60647 20.2518 6.53693 20.066 6.47898C18.4287 5.95742 18.6029 5.43586 19.9615 4.20731C20.2054 3.98709 20.4957 3.73211 20.7279 3.54667C20.7976 3.5003 20.8557 3.47712 20.8905 3.5003H20.9137Z" fill="#141414"/>
<path d="M5.01645 3.5003C5.01645 3.5003 4.99323 3.59303 4.99323 3.65098C5.05129 3.96391 5.28354 4.35798 5.37644 4.6825C5.45772 4.98385 5.28354 4.9259 4.85388 4.99544C4.07585 5.13452 4.91194 5.64449 4.78421 6.07332C4.72614 6.31672 4.38939 6.39785 4.29649 6.58329C4.27326 6.61806 4.26165 6.66442 4.28488 6.71078C4.44745 6.96577 4.98162 6.71078 5.27192 6.65283C5.45772 6.60647 5.67836 6.53693 5.86415 6.47898C7.50149 5.95742 7.32731 5.43586 5.96866 4.20731C5.7248 3.98709 5.4345 3.73211 5.20225 3.54667C5.13258 3.5003 5.07451 3.47712 5.03968 3.5003H5.01645Z" fill="#141414"/>
<path d="M10.2188 7.84657C10.6716 8.02043 10.6833 8.78538 10.6368 9.23739C10.5788 9.72418 10.242 10.4775 9.66138 10.2689C8.88335 9.8169 9.12721 7.74226 10.1955 7.84657H10.2072H10.2188Z" fill="#141414"/>
<path d="M21.2041 12.448C21.657 12.2857 21.6918 12.9348 21.657 13.2361C21.5873 13.9084 21.2854 14.6965 20.8557 15.1369C20.1938 15.728 20.2054 14.3488 20.3216 13.8968C20.4145 13.3636 20.7396 12.6334 21.1925 12.448H21.2041Z" fill="#141414"/>
<path d="M15.6882 7.91625C15.9204 7.75399 16.1991 7.89307 16.3733 8.09011C16.7914 8.57689 16.8959 9.57365 16.4894 10.13C16.0249 10.6863 15.4675 9.94453 15.3863 9.43457C15.2701 8.97096 15.3282 8.2176 15.6766 7.92784H15.6882V7.91625Z" fill="#141414"/>
<path d="M4.57528 12.529C5.34169 12.4711 5.67845 13.7344 5.67845 14.395C5.66684 14.7312 5.65523 15.2295 5.28363 15.3338C4.71463 15.3107 4.2153 14.2328 4.25013 13.5026C4.27336 13.1897 4.26175 12.6565 4.56367 12.529H4.57528Z" fill="#141414"/>
<path d="M8.82535 5.58657C9.46403 5.47067 9.95175 5.96905 9.33629 6.43265C8.95309 6.71082 8.16345 6.83831 7.95443 6.35152C7.88475 5.9111 8.40731 5.65611 8.79051 5.58657H8.81374H8.82535Z" fill="#141414"/>
<path d="M16.8262 5.58656C17.163 5.55179 17.6275 5.69087 17.8714 5.95745C18.2313 6.32833 17.9178 6.71081 17.4533 6.68763C17.1746 6.68763 16.8611 6.56014 16.6521 6.38628C16.234 6.05017 16.3385 5.63292 16.7914 5.58656H16.8146H16.8262Z" fill="#141414"/>
<path d="M5.86413 10.3269C6.3983 10.5819 5.8293 11.6018 5.31835 11.428C4.7958 11.1498 5.32997 10.1994 5.84091 10.3269H5.85252H5.86413Z" fill="#141414"/>
<path d="M20.1474 10.3153C20.6816 10.1646 21.088 11.0455 20.6235 11.3352C20.1125 11.5786 19.5435 10.5355 20.1242 10.3153H20.1358H20.1474Z" fill="#141414"/>
<path d="M6.86288 13.9084C7.19963 13.665 8.04733 14.4416 7.86154 14.8009C7.59445 15.137 6.61902 14.3025 6.86288 13.92V13.9084Z" fill="#141414"/>
<path d="M19.0791 13.7692C19.5668 14.001 18.7771 14.963 18.3243 14.7892C17.8482 14.511 18.661 13.5838 19.0558 13.7576H19.0675L19.0791 13.7692Z" fill="#141414"/>
<path d="M11.0317 4.19578C11.7981 4.06828 11.74 4.92596 11.0317 4.96073C10.4511 4.97232 10.4627 4.32327 11.0085 4.19578H11.0317Z" fill="#141414"/>
<path d="M14.4805 4.28844C14.6314 4.14936 14.9334 4.17254 15.1076 4.28844C15.3398 4.41593 15.4559 4.74046 15.1656 4.86795C14.8637 5.05339 14.1553 4.65933 14.4573 4.30003H14.4689L14.4805 4.28844Z" fill="#141414"/>
<path d="M18.4404 8.48412C18.7191 8.148 19.7409 8.70433 19.2532 9.05203C18.9513 9.26066 18.1849 8.86659 18.4288 8.49571L18.4404 8.48412Z" fill="#141414"/>
<path d="M7.42027 8.49572C7.95444 8.73912 7.17641 9.23749 6.82804 9.13318C6.53774 9.06364 6.54935 8.80866 6.78159 8.64639C6.94417 8.5189 7.21125 8.42618 7.39705 8.49572H7.42027Z" fill="#141414"/>
<path d="M10.7414 6.58329C11.0201 6.29354 11.7052 6.78033 11.3917 7.11644C11.1246 7.35984 10.4627 6.95418 10.7298 6.60648H10.7414V6.58329Z" fill="#141414"/>
<path d="M14.8637 6.49068C15.0611 6.38637 15.3282 6.49068 15.3166 6.72249C15.3166 7.00065 14.945 7.31358 14.6547 7.1745C14.3644 7.00065 14.6083 6.59499 14.8521 6.49068H14.8753H14.8637Z" fill="#141414"/>
<path d="M11.74 5.30854C12.2974 5.20422 12.309 5.93441 11.7633 5.946C11.3452 5.946 11.3568 5.41285 11.7168 5.30854H11.74Z" fill="#141414"/>
<path d="M14.0741 5.32008C14.4921 5.28531 14.7824 5.87641 14.2483 5.94595C13.8418 5.98072 13.5399 5.4128 14.0509 5.32008H14.0741Z" fill="#141414"/>
<path d="M13.8186 6.72247C13.9115 6.69929 13.9464 6.72247 14.0044 6.76883C14.167 6.94269 14.0509 7.30198 13.8303 7.3947C13.6561 7.47583 13.5283 7.29039 13.5516 7.12813C13.5516 6.97746 13.6561 6.79201 13.7954 6.73406H13.8186V6.72247Z" fill="#141414"/>
<path d="M11.949 6.69912C12.2509 6.53685 12.5877 7.20908 12.3322 7.39453C12.0303 7.51043 11.74 6.91933 11.9374 6.71071H11.949V6.69912Z" fill="#141414"/>
<path d="M18.6377 10.5125C18.7539 10.5125 18.8584 10.5125 18.9745 10.5125C19.1255 10.6168 18.2894 12.3205 17.732 12.7146C16.7565 13.3868 16.0482 12.7262 15.723 12.9116C15.3398 13.5375 15.2818 14.2329 15.0728 14.9167C14.6779 13.5838 14.4109 11.2426 16.1992 10.8022C16.3153 10.7674 18.51 10.524 18.6261 10.524" fill="#141414"/>
<path d="M17.732 11.0687C18.092 11.0803 17.8133 12.2161 17.2211 12.4827C16.2805 12.9115 15.3399 11.9148 15.9786 11.8105C16.176 11.7757 16.3734 12.1582 16.7101 12.0886C17.0817 12.0191 17.3024 11.0571 17.732 11.0687Z" fill="white"/>
<path d="M6.94411 10.5123C9.2898 10.8253 11.3684 10.4196 11.1478 13.5258C11.1129 13.9546 10.9155 14.4182 10.8923 14.847C10.1375 12.1234 10.2652 13.0738 9.08078 13.039C7.91954 13.0042 7.18797 11.4627 6.9325 10.5007" fill="#141414"/>
<path d="M8.0705 11.0688C8.76724 11.1152 8.68596 11.8686 9.13884 12.0308C9.45237 12.1351 10.2304 11.5209 10.1839 12.112C10.1607 12.4017 8.04728 13.3869 8.0705 11.0688Z" fill="white"/>
</svg>
