<svg width="144" height="23" viewBox="0 0 144 23" fill="none" xmlns="http://www.w3.org/2000/svg">
<path d="M0.213178 0.663895H9.10102C13.0307 0.663895 15.7735 3.80233 15.7735 6.9144C15.7735 9.55174 13.9801 11.3715 13.268 11.3715C15.2724 11.3715 17.3295 13.5341 17.3295 16.277C17.3295 19.178 15.0614 22 11.1318 22H0.213178V0.663895ZM4.93402 4.80452V9.26163H9.49663C10.7098 9.26163 11.6856 8.23307 11.6856 7.04626C11.6856 5.85946 10.6571 4.80452 9.523 4.80452H4.93402ZM10.8417 17.8594C12.0548 17.8594 13.0307 16.8836 13.0307 15.6704C13.0307 14.4308 12.0285 13.4023 10.7889 13.4023H4.93402V17.8594H10.8417ZM32.335 22L30.6735 17.5956H22.8142L21.1527 22H16.6692L24.5021 0.663895H29.4603L36.8448 22H32.335ZM24.2911 13.666H29.1965L26.7438 7.17813L24.2911 13.666ZM50.257 13.8506L55.2943 22H49.8614L45.6416 14.3253C42.2658 14.3253 41.7384 14.3253 41.7384 14.3253V22H37.0175V0.663895H46.8812C51.5229 0.663895 54.3712 4.01332 54.3712 7.54736C54.3712 10.2638 52.7624 12.9012 50.257 13.8506ZM41.7384 10.1847H47.2504C48.8856 10.1847 50.2306 9.18251 50.2306 7.54736C50.2306 5.88583 48.8856 4.80452 47.2504 4.80452H41.7384V10.1847ZM65.7456 9.23526C69.1741 10.0001 73.4203 10.9495 73.4203 15.222C73.4203 19.4418 70.2291 22.3956 64.0841 22.3956C58.9676 22.3956 55.7764 19.4154 55.7764 15.5913V15.1693H60.8401V15.5913C60.8401 17.4374 62.8181 18.0704 64.7961 18.0704C66.6687 18.0704 68.5675 17.5165 68.5675 15.5913C68.5675 14.0089 66.2994 13.4814 63.6621 12.8484C60.3127 12.0572 56.1193 11.055 56.1193 7.07264C56.1193 2.93201 59.5742 0.241919 64.9016 0.241919C69.8071 0.241919 73.2356 3.06388 73.2356 7.07264V7.49461H68.5675V7.07264C68.5675 5.46386 66.4577 4.48804 64.4269 4.48804C63.0555 4.48804 61.0511 5.14738 61.0511 6.67704C61.0511 8.18032 63.2137 8.68142 65.7456 9.23526ZM89.8756 13.4023H94.702C93.8844 19.3627 89.6646 22.3956 84.6537 22.3956C79.0889 22.3956 74.4999 18.5978 74.4999 11.3188C74.4999 4.19793 79.0889 0.215546 84.6537 0.215546C89.691 0.215546 93.5943 3.30124 94.5965 8.6023H89.6646C89.1108 5.93858 87.1064 4.64628 84.6537 4.64628C81.5153 4.64628 79.0889 6.75616 79.0889 11.3188C79.0889 15.9077 81.4889 17.9912 84.6537 17.9912C87.3174 17.9912 89.5328 16.5143 89.8756 13.4023ZM105.67 0.215546C111.499 0.215546 115.85 4.3298 115.85 11.3188C115.85 18.6242 111.235 22.3956 105.67 22.3956C100.105 22.3956 95.5162 18.5978 95.5162 11.3188C95.5162 4.19793 100.105 0.215546 105.67 0.215546ZM105.67 17.9912C108.861 17.9912 111.235 15.9077 111.235 11.3188C111.235 6.75616 108.835 4.64628 105.67 4.64628C102.532 4.64628 100.105 6.75616 100.105 11.3188C100.105 15.9077 102.505 17.9912 105.67 17.9912ZM121.932 0.663895V22H117.554V0.663895H121.932ZM139.201 0.663895H143.579V22H139.201L128.863 7.49461L128.731 22H124.379V0.663895H128.731L139.201 15.0638V0.663895Z" fill="#1E1E1E"/>
</svg>
