<svg width="4830" height="869" viewBox="0 0 4830 869" fill="none" xmlns="http://www.w3.org/2000/svg">
<path opacity="0.4" d="M4759.11 93.7421C4740.21 93.4987 4691.86 107.719 4674.46 106.989C4657.06 106.259 4597.36 99.3747 4575.3 102.695C4553.19 106.016 4354.28 126.616 4347.48 125.33C4340.68 124.043 4331.04 121.47 4315.19 122.757C4299.34 124.043 4217.32 118.272 4207.52 118.272C4197.72 118.272 4178.07 125.504 4170.09 125.504C4162.11 125.504 4131.54 119.975 4120.24 117.403C4108.89 114.83 3833.47 135.43 3822.12 135.065C3810.77 134.7 3780.2 125.504 3764.29 126.964C3748.45 128.442 3677.02 163.402 3648.32 158.5C3619.62 153.597 3271.28 71.7679 3259.93 69.9252C3248.57 68.0824 3166.23 69.9252 3151.88 69.4384C3137.53 68.9516 3005.28 0.247724 2995.48 0.00433945C2985.68 -0.239045 2982.63 9.82664 2973.58 12.2779C2964.53 14.7291 2902.69 22.952 2892.3 27.2634C2882.93 31.1749 2810.38 107.963 2807.33 110.901C2804.33 113.839 2749.13 117.037 2739.33 120.966C2729.54 124.895 2678.13 162.429 2674.33 168.079C2670.53 173.729 2644.88 173.972 2632.78 176.91C2620.68 179.848 2598.03 203.404 2576.89 199.979C2555.74 196.537 2483.19 153.371 2477.89 153.11C2472.59 152.85 2458.24 156.048 2446.14 156.292C2434.03 156.535 2387.19 115.56 2357.63 115.56C2328.07 115.56 2180.89 204.621 2175.59 204.621C2170.29 204.621 2159.74 199.719 2149.14 199.962C2138.53 200.205 2100.79 217.138 2095.49 216.408C2090.19 215.678 2082.64 210.514 2072.09 208.307C2061.49 206.099 1976.89 201.926 1965.54 201.196C1954.19 200.466 1938.34 205.734 1926.99 205.003C1915.64 204.273 1887.31 191.756 1868.04 192.121C1848.76 192.487 1758.12 217.52 1752.44 214.565C1746.77 211.627 1611.89 157.161 1601.67 157.161C1591.44 157.161 1559.74 167.835 1548.39 165.992C1537.04 164.15 1373.84 99.3747 1353.44 98.6445C1333.04 97.9144 1235.54 139.863 1215.14 142.436C1194.74 145.009 1178.9 138.021 1131.24 127.346C1083.59 116.672 1055.32 126.616 1008.84 117.785C962.37 108.954 834.297 75.8359 816.146 75.4709C797.995 75.1058 773.098 100.122 748.147 94.2462C723.196 88.3529 713.398 85.4148 713.398 85.4148C681.648 85.9016 479.15 156.083 474.599 156.083C470.048 156.083 432.301 135.482 415.649 136.943C399.051 138.42 298.391 186.906 277.296 188.662C239.977 191.756 110.458 263.311 0 327.999V868.347H4829.57V98.123C4800.71 96.089 4769.18 93.8811 4759.11 93.7421Z" fill="#E5F6FF"/>
</svg>
