<svg width="1710" height="308" viewBox="0 0 1710 308" fill="none" xmlns="http://www.w3.org/2000/svg">
<path d="M1684.66 33.1835C1677.97 33.0973 1660.86 38.1312 1654.7 37.8727C1648.54 37.6143 1627.4 35.1773 1619.6 36.3527C1611.77 37.5281 1541.36 44.8205 1538.95 44.3651C1536.54 43.9097 1533.13 42.999 1527.52 43.4543C1521.91 43.9097 1492.87 41.8666 1489.41 41.8666C1485.94 41.8666 1478.98 44.4267 1476.16 44.4267C1473.33 44.4267 1462.51 42.4697 1458.51 41.5589C1454.49 40.6482 1357 47.9405 1352.98 47.8113C1348.96 47.6821 1338.14 44.4267 1332.51 44.9436C1326.9 45.4667 1301.62 57.8422 1291.46 56.1068C1281.3 54.3714 1157.99 25.4049 1153.97 24.7526C1149.95 24.1003 1120.8 24.7526 1115.72 24.5803C1110.64 24.408 1063.83 0.0876909 1060.36 0.00153611C1056.89 -0.0846187 1055.81 3.4785 1052.61 4.3462C1049.41 5.2139 1027.51 8.12471 1023.84 9.65088C1020.52 11.0355 994.839 38.2174 993.758 39.2574C992.697 40.2974 973.156 41.4297 969.688 42.8205C966.219 44.2113 948.024 57.4976 946.679 59.4976C945.333 61.4976 936.254 61.5838 931.971 62.6238C927.687 63.6638 919.67 72.0024 912.184 70.79C904.697 69.5716 879.015 54.2914 877.139 54.1991C875.263 54.1068 870.183 55.2391 865.9 55.3252C861.616 55.4114 845.032 40.9066 834.57 40.9066C824.108 40.9066 772.005 72.4331 770.129 72.4331C768.252 72.4331 764.519 70.6977 760.766 70.7839C757.013 70.87 743.651 76.864 741.775 76.6055C739.898 76.347 737.226 74.5193 733.492 73.7378C729.739 72.9562 699.793 71.4793 695.775 71.2208C691.757 70.9623 686.147 72.827 682.129 72.5685C678.111 72.3101 668.084 67.8792 661.261 68.0085C654.438 68.1377 622.35 76.9993 620.341 75.9532C618.332 74.9132 570.589 55.6329 566.969 55.6329C563.348 55.6329 552.128 59.4114 548.11 58.7591C544.092 58.1068 486.322 35.1773 479.101 34.9189C471.88 34.6604 437.366 49.5098 430.145 50.4206C422.924 51.3314 417.313 48.8575 400.445 45.079C383.577 41.3005 373.569 44.8205 357.118 41.6943C340.666 38.5681 295.33 26.8449 288.905 26.7157C282.48 26.5865 273.666 35.4419 264.834 33.3619C256.002 31.2757 252.534 30.2357 252.534 30.2357C241.294 30.408 169.613 55.2514 168.002 55.2514C166.391 55.2514 153.029 47.959 147.134 48.4759C141.259 48.999 105.627 66.1623 98.159 66.7838C84.9486 67.8792 39.1006 93.2088 0 116.107V307.384H1709.6V34.7342C1699.39 34.0142 1688.23 33.2327 1684.66 33.1835Z" fill="white"/>
</svg>
