<svg width="158" height="31" viewBox="0 0 158 31" fill="none" xmlns="http://www.w3.org/2000/svg">
<path d="M9.66391 13.0258L15.8013 7.0075L21.9412 13.0307L25.5103 9.52697L15.8013 0L6.09229 9.52452L9.66391 13.0258Z" fill="#F3BA2F"/>
<path d="M-0.00146484 15.5005L3.56885 11.998L7.13917 15.5005L3.56885 19.003L-0.00146484 15.5005Z" fill="#F3BA2F"/>
<path d="M9.66402 17.9741L15.8014 23.9949L21.9413 17.9717L25.5129 21.4705L25.5104 21.473L15.8014 31L6.09239 21.4779L6.0874 21.473L9.66402 17.9741Z" fill="#F3BA2F"/>
<path d="M24.4575 15.5015L28.0278 11.999L31.5982 15.5015L28.0278 19.0039L24.4575 15.5015Z" fill="#F3BA2F"/>
<path d="M19.4229 15.4988L15.8013 11.9436L13.1232 14.5708L12.8138 14.872L12.1798 15.4939L12.1748 15.4988L12.1798 15.5061L15.8013 19.0564L19.4229 15.5012L19.4254 15.4988H19.4229Z" fill="#F3BA2F"/>
<path d="M37.1689 7.51184H44.9362C46.863 7.51184 48.3206 8.00153 49.309 8.98092C49.6813 9.3427 49.9749 9.77492 50.1718 10.2514C50.3688 10.7278 50.465 11.2386 50.4546 11.7526V11.7991C50.4613 12.2202 50.4015 12.6398 50.2774 13.0429C50.1668 13.39 50.0063 13.7198 49.8007 14.0223C49.609 14.3076 49.3771 14.5648 49.1118 14.7862C48.8526 15.0051 48.5687 15.194 48.2657 15.3494C49.1396 15.648 49.9255 16.1524 50.5544 16.8185C51.1102 17.4387 51.388 18.2957 51.388 19.3893V19.4359C51.4038 20.1189 51.2523 20.7956 50.9463 21.4093C50.6497 21.9748 50.2149 22.4593 49.6809 22.8196C49.077 23.2168 48.4047 23.503 47.6966 23.6644C46.8553 23.8601 45.9929 23.9546 45.1283 23.9459H37.1689V7.51184ZM44.1574 14.157C44.8294 14.1888 45.4982 14.047 46.0968 13.7456C46.3302 13.6119 46.5208 13.4167 46.6469 13.1821C46.7731 12.9476 46.8298 12.6831 46.8106 12.4186V12.372C46.8229 12.1283 46.7725 11.8855 46.6638 11.6659C46.5552 11.4464 46.3919 11.2572 46.1891 11.116C45.7748 10.8271 45.1766 10.6826 44.3946 10.6826H40.7605V14.157H44.1574ZM45.1383 20.7801C45.8078 20.8169 46.4742 20.6666 47.0602 20.3467C47.2884 20.2028 47.4732 20.0016 47.5952 19.7639C47.7173 19.5261 47.7721 19.2607 47.754 18.9951V18.9486C47.763 18.6962 47.7088 18.4455 47.5961 18.2184C47.4834 17.9913 47.3157 17.7948 47.1076 17.646C46.6783 17.3196 45.9844 17.1563 45.026 17.1563H40.7605V20.7801H45.1383Z" fill="#F3BA2F"/>
<path d="M56.0154 7.51184H59.7018V23.9508H56.0154V7.51184Z" fill="#F3BA2F"/>
<path d="M65.2803 7.51184H68.6797L76.5368 17.6289V7.51184H80.1758V23.9508H77.0384L68.9243 13.5008V23.9508H65.2803V7.51184Z" fill="#F3BA2F"/>
<path d="M91.3372 7.39429H94.7316L101.912 23.9508H98.0637L96.5312 20.2634H89.4453L87.9129 23.9508H84.1541L91.3372 7.39429ZM95.2159 17.0706L92.9845 11.7379L90.7632 17.0706H95.2159Z" fill="#F3BA2F"/>
<path d="M105.898 7.51184H109.298L117.15 17.6289V7.51184H120.789V23.9508H117.652L109.537 13.5008V23.9508H105.898V7.51184Z" fill="#F3BA2F"/>
<path d="M134.057 24.2398C132.882 24.2496 131.717 24.0264 130.633 23.5836C129.612 23.1699 128.685 22.5599 127.908 21.7896C127.131 21.0192 126.519 20.104 126.108 19.098C125.674 18.0457 125.454 16.9203 125.461 15.7852V15.7387C125.442 13.5014 126.319 11.3461 127.905 9.73752C128.685 8.95174 129.619 8.32878 130.65 7.90606C131.772 7.45007 132.977 7.22265 134.192 7.23763C134.91 7.23237 135.627 7.29551 136.333 7.42617C136.937 7.53822 137.528 7.71135 138.095 7.94279C138.611 8.15547 139.1 8.42315 139.556 8.74099C140 9.05098 140.417 9.39658 140.804 9.77424L138.46 12.4284C137.861 11.8864 137.189 11.4275 136.463 11.0646C135.75 10.73 134.967 10.5624 134.177 10.5749C133.519 10.568 132.867 10.6985 132.265 10.9577C131.662 11.2169 131.123 11.5989 130.683 12.0782C130.246 12.5564 129.904 13.1102 129.674 13.7114C129.434 14.3466 129.313 15.0194 129.317 15.6971V15.7436C129.315 16.4203 129.436 17.0919 129.674 17.7269C129.901 18.3301 130.24 18.8871 130.673 19.3698C131.11 19.8551 131.648 20.2427 132.251 20.5063C132.853 20.7699 133.507 20.9033 134.167 20.8976C135.007 20.9236 135.841 20.7462 136.595 20.381C137.313 19.9972 137.977 19.5231 138.57 18.9707L140.916 21.2967C140.502 21.7378 140.054 22.1471 139.576 22.5209C139.106 22.8852 138.596 23.1964 138.056 23.4489C137.48 23.7149 136.873 23.9114 136.249 24.0341C135.527 24.176 134.793 24.2449 134.057 24.2398Z" fill="#F3BA2F"/>
<path d="M145.266 7.51184H157.878V10.7291H148.893V14.0639H156.805V17.2812H148.905V20.7335H158.003V23.9508H145.274L145.266 7.51184Z" fill="#F3BA2F"/>
</svg>
