<svg width="293" height="396" viewBox="0 0 293 396" fill="none" xmlns="http://www.w3.org/2000/svg">
<rect x="0.940918" y="0.686768" width="291.981" height="394.934" rx="48" fill="#506FD3"/>
<mask id="mask0_2001_721" style="mask-type:alpha" maskUnits="userSpaceOnUse" x="0" y="0" width="293" height="396">
<rect x="0.940918" y="0.686768" width="291.981" height="394.934" rx="48" fill="#506FD3"/>
</mask>
<g mask="url(#mask0_2001_721)">
<path d="M48.1979 217.051L48.6639 215.428L48.1979 217.051ZM128.366 183.503L127.939 185.135L128.366 183.503ZM181.53 187.696L182.781 186.563L181.53 187.696ZM231.6 134.019C231.6 138.991 235.63 143.021 240.602 143.021C245.573 143.021 249.603 138.991 249.603 134.019C249.603 129.048 245.573 125.018 240.602 125.018C235.63 125.018 231.6 129.048 231.6 134.019ZM-4.28199 271.444C1.46308 259.188 9.51588 244.382 18.7465 233.435C23.3628 227.96 28.2038 223.535 33.1189 220.854C38.0063 218.187 42.8881 217.281 47.7319 218.673L48.6639 215.428C42.7577 213.732 36.955 214.916 31.5023 217.891C26.0773 220.85 20.9225 225.618 16.1659 231.259C6.65074 242.544 -1.55043 257.664 -7.33834 270.011L-4.28199 271.444ZM47.7319 218.673C56.5543 221.207 60.0749 228.978 63.3747 236.978C64.9709 240.848 66.5536 244.855 68.7523 247.848C71.0315 250.95 74.0879 253.125 78.5775 253.125V249.749C75.4254 249.749 73.2897 248.323 71.4727 245.849C69.575 243.266 68.1573 239.721 66.4952 235.691C63.2783 227.892 59.2507 218.47 48.6639 215.428L47.7319 218.673ZM78.5775 253.125C85.5655 253.125 90.1165 247.471 93.5061 240.418C96.9392 233.275 99.5811 223.848 102.369 214.947C105.198 205.916 108.174 197.43 112.263 191.691C114.29 188.846 116.519 186.784 119.033 185.64C121.514 184.512 124.415 184.213 127.939 185.135L128.793 181.87C124.602 180.773 120.898 181.084 117.636 182.568C114.408 184.036 111.755 186.587 109.514 189.732C105.066 195.975 101.955 204.976 99.1478 213.938C96.3002 223.03 93.7587 232.1 90.4638 238.956C87.1254 245.902 83.4038 249.749 78.5775 249.749V253.125ZM127.939 185.135C130.989 185.933 133.126 189.101 134.677 194.516C136.196 199.822 136.952 206.554 137.79 213.377C138.614 220.093 139.521 226.927 141.403 232.084C142.349 234.673 143.589 236.983 145.307 238.661C147.072 240.382 149.289 241.383 151.995 241.383V238.008C150.215 238.008 148.831 237.383 147.665 236.245C146.453 235.062 145.432 233.277 144.574 230.926C142.849 226.202 141.976 219.775 141.14 212.966C140.318 206.265 139.533 199.211 137.922 193.587C136.343 188.073 133.76 183.169 128.793 181.87L127.939 185.135ZM151.995 241.383C154.972 241.383 157.307 239.866 159.098 237.605C160.857 235.386 162.181 232.352 163.245 228.979C165.371 222.234 166.633 213.507 167.906 205.702C168.548 201.764 169.193 198.05 169.951 194.853C170.717 191.626 171.567 189.072 172.562 187.377C173.562 185.672 174.44 185.25 175.208 185.288C176.195 185.337 177.837 186.132 180.279 188.829L182.781 186.563C180.234 183.75 177.791 182.037 175.376 181.917C172.743 181.785 170.904 183.532 169.65 185.668C168.391 187.815 167.45 190.776 166.667 194.073C165.878 197.4 165.216 201.22 164.574 205.159C163.278 213.109 162.059 221.515 160.026 227.964C159.009 231.187 157.834 233.765 156.453 235.509C155.104 237.211 153.659 238.008 151.995 238.008V241.383ZM180.279 188.829C186.118 195.276 192.602 199.749 199.211 201.576C205.873 203.417 212.585 202.542 218.659 198.423C224.682 194.34 229.944 187.161 234.014 176.628C238.088 166.085 241.012 152.069 242.285 134.139L238.918 133.9C237.66 151.614 234.782 165.276 230.866 175.411C226.945 185.558 222.028 192.06 216.764 195.63C211.551 199.164 205.869 199.914 200.11 198.322C194.299 196.716 188.336 192.697 182.781 186.563L180.279 188.829Z" fill="white"/>
</g>
<path d="M34.4934 73.5393V49.9108H45.5651C48.4005 49.9108 50.5608 50.4733 52.046 51.5985C53.5313 52.7012 54.2739 54.1864 54.2739 56.0542C54.2739 57.3144 53.9813 58.3945 53.3962 59.2947C52.8112 60.1723 52.0235 60.8587 51.0334 61.3537C50.0657 61.8263 49.0081 62.0626 47.8604 62.0626L48.468 60.8474C49.7957 60.8474 50.9884 61.0949 52.046 61.59C53.1037 62.0626 53.9363 62.7602 54.5439 63.6828C55.174 64.6055 55.4891 65.7531 55.4891 67.1258C55.4891 69.1511 54.7127 70.7264 53.16 71.8516C51.6072 72.9767 49.3006 73.5393 46.2402 73.5393H34.4934ZM38.8816 70.0963H45.9701C47.6129 70.0963 48.8731 69.8262 49.7507 69.2862C50.6283 68.7461 51.0671 67.8797 51.0671 66.687C51.0671 65.5169 50.6283 64.6617 49.7507 64.1216C48.8731 63.5591 47.6129 63.2778 45.9701 63.2778H38.544V59.8685H45.0925C46.6227 59.8685 47.7929 59.5985 48.603 59.0584C49.4357 58.5183 49.852 57.7082 49.852 56.628C49.852 55.5254 49.4357 54.704 48.603 54.1639C47.7929 53.6238 46.6227 53.3538 45.0925 53.3538H38.8816V70.0963ZM60.1723 73.5393V49.9108H69.8938C71.9866 49.9108 73.7756 50.2483 75.2608 50.9234C76.7686 51.5985 77.9275 52.5662 78.7376 53.8263C79.5477 55.0865 79.9528 56.583 79.9528 58.3158C79.9528 60.0485 79.5477 61.545 78.7376 62.8052C77.9275 64.0429 76.7686 64.9993 75.2608 65.6744C73.7756 66.327 71.9866 66.6533 69.8938 66.6533H62.6027L64.5605 64.6617V73.5393H60.1723ZM75.6321 73.5393L69.6575 64.9655H74.3494L80.3578 73.5393H75.6321ZM64.5605 65.1343L62.6027 63.0415H69.6912C71.6265 63.0415 73.078 62.6252 74.0456 61.7925C75.0358 60.9599 75.5309 59.801 75.5309 58.3158C75.5309 56.808 75.0358 55.6491 74.0456 54.839C73.078 54.0289 71.6265 53.6238 69.6912 53.6238H62.6027L64.5605 51.4635V65.1343ZM92.1871 73.8769C90.3419 73.8769 88.5753 73.6181 86.8876 73.1005C85.1998 72.5604 83.8609 71.8741 82.8707 71.0414L84.3897 67.6322C85.3349 68.3748 86.505 68.9936 87.9002 69.4887C89.2955 69.9838 90.7244 70.2313 92.1871 70.2313C93.4248 70.2313 94.4262 70.0963 95.1913 69.8262C95.9565 69.5562 96.519 69.1962 96.8791 68.7461C97.2391 68.2735 97.4192 67.7447 97.4192 67.1596C97.4192 66.4395 97.1604 65.8657 96.6428 65.4381C96.1252 64.988 95.4501 64.6392 94.6175 64.3917C93.8074 64.1216 92.896 63.8741 91.8833 63.6491C90.8932 63.424 89.8918 63.1653 88.8791 62.8727C87.889 62.5577 86.9776 62.1639 86.145 61.6913C85.3349 61.1962 84.671 60.5436 84.1534 59.7335C83.6359 58.9234 83.3771 57.8882 83.3771 56.628C83.3771 55.3453 83.7146 54.1752 84.3897 53.1175C85.0873 52.0373 86.1337 51.1822 87.5289 50.5521C88.9467 49.8995 90.7357 49.5732 92.896 49.5732C94.3137 49.5732 95.7202 49.7532 97.1154 50.1133C98.5106 50.4733 99.7258 50.9909 100.761 51.666L99.377 55.0753C98.3193 54.4452 97.2279 53.9839 96.1027 53.6913C94.9776 53.3763 93.8974 53.2188 92.8622 53.2188C91.6471 53.2188 90.6569 53.365 89.8918 53.6576C89.1492 53.9501 88.5979 54.3327 88.2378 54.8052C87.9002 55.2778 87.7315 55.8179 87.7315 56.4255C87.7315 57.1456 87.979 57.7307 88.4741 58.1808C88.9917 58.6083 89.6555 58.9459 90.4656 59.1934C91.2983 59.4409 92.2209 59.6885 93.2335 59.936C94.2462 60.161 95.2476 60.4198 96.2377 60.7124C97.2504 61.0049 98.1618 61.3875 98.9719 61.8601C99.8045 62.3326 100.468 62.974 100.963 63.7841C101.481 64.5942 101.74 65.6181 101.74 66.8558C101.74 68.116 101.391 69.2862 100.693 70.3663C100.018 71.424 98.9719 72.2791 97.5542 72.9317C96.1365 73.5618 94.3475 73.8769 92.1871 73.8769Z" fill="white"/>
<path d="M158.536 308.499C157.042 308.499 155.692 308.121 154.486 307.365C153.298 306.609 152.362 305.511 151.677 304.071C150.993 302.612 150.651 300.848 150.651 298.778C150.651 296.708 150.993 294.952 151.677 293.512C152.362 292.054 153.298 290.947 154.486 290.191C155.692 289.434 157.042 289.056 158.536 289.056C160.049 289.056 161.399 289.434 162.587 290.191C163.775 290.947 164.711 292.054 165.396 293.512C166.098 294.952 166.449 296.708 166.449 298.778C166.449 300.848 166.098 302.612 165.396 304.071C164.711 305.511 163.775 306.609 162.587 307.365C161.399 308.121 160.049 308.499 158.536 308.499ZM158.536 305.448C159.419 305.448 160.184 305.214 160.832 304.746C161.48 304.26 161.984 303.522 162.344 302.531C162.722 301.541 162.911 300.29 162.911 298.778C162.911 297.248 162.722 295.996 162.344 295.024C161.984 294.034 161.48 293.305 160.832 292.837C160.184 292.351 159.419 292.108 158.536 292.108C157.69 292.108 156.934 292.351 156.268 292.837C155.62 293.305 155.107 294.034 154.729 295.024C154.369 295.996 154.189 297.248 154.189 298.778C154.189 300.29 154.369 301.541 154.729 302.531C155.107 303.522 155.62 304.26 156.268 304.746C156.934 305.214 157.69 305.448 158.536 305.448ZM170.611 308.418C169.999 308.418 169.477 308.211 169.045 307.797C168.613 307.365 168.397 306.825 168.397 306.177C168.397 305.493 168.613 304.953 169.045 304.557C169.477 304.143 169.999 303.936 170.611 303.936C171.223 303.936 171.745 304.143 172.177 304.557C172.609 304.953 172.825 305.493 172.825 306.177C172.825 306.825 172.609 307.365 172.177 307.797C171.745 308.211 171.223 308.418 170.611 308.418ZM182.963 308.499C181.253 308.499 179.786 308.139 178.561 307.419C177.337 306.681 176.401 305.619 175.753 304.233C175.105 302.846 174.781 301.136 174.781 299.102C174.781 296.942 175.168 295.114 175.942 293.62C176.734 292.126 177.823 290.992 179.21 290.218C180.614 289.443 182.225 289.056 184.043 289.056C184.997 289.056 185.907 289.155 186.771 289.353C187.653 289.551 188.4 289.857 189.012 290.272L187.716 292.918C187.194 292.576 186.627 292.342 186.015 292.216C185.421 292.072 184.79 292 184.124 292C182.342 292 180.929 292.549 179.885 293.647C178.841 294.745 178.318 296.365 178.318 298.508C178.318 298.85 178.327 299.255 178.345 299.723C178.363 300.173 178.426 300.632 178.534 301.1L177.454 299.912C177.778 299.174 178.219 298.562 178.778 298.076C179.354 297.572 180.029 297.194 180.803 296.942C181.595 296.69 182.45 296.563 183.368 296.563C184.61 296.563 185.718 296.807 186.69 297.293C187.662 297.761 188.436 298.436 189.012 299.318C189.588 300.182 189.876 301.199 189.876 302.369C189.876 303.612 189.57 304.692 188.958 305.61C188.346 306.528 187.518 307.239 186.474 307.743C185.43 308.247 184.259 308.499 182.963 308.499ZM182.774 305.745C183.494 305.745 184.133 305.619 184.691 305.367C185.249 305.097 185.682 304.719 185.988 304.233C186.312 303.747 186.474 303.179 186.474 302.531C186.474 301.541 186.132 300.758 185.448 300.182C184.763 299.606 183.845 299.318 182.693 299.318C181.937 299.318 181.271 299.462 180.695 299.75C180.137 300.02 179.687 300.398 179.345 300.884C179.021 301.37 178.859 301.928 178.859 302.558C178.859 303.134 179.012 303.666 179.318 304.152C179.624 304.638 180.065 305.025 180.641 305.313C181.235 305.601 181.946 305.745 182.774 305.745ZM199.596 308.499C198.102 308.499 196.752 308.121 195.546 307.365C194.358 306.609 193.421 305.511 192.737 304.071C192.053 302.612 191.711 300.848 191.711 298.778C191.711 296.708 192.053 294.952 192.737 293.512C193.421 292.054 194.358 290.947 195.546 290.191C196.752 289.434 198.102 289.056 199.596 289.056C201.109 289.056 202.459 289.434 203.647 290.191C204.835 290.947 205.771 292.054 206.455 293.512C207.157 294.952 207.509 296.708 207.509 298.778C207.509 300.848 207.157 302.612 206.455 304.071C205.771 305.511 204.835 306.609 203.647 307.365C202.459 308.121 201.109 308.499 199.596 308.499ZM199.596 305.448C200.478 305.448 201.244 305.214 201.892 304.746C202.54 304.26 203.044 303.522 203.404 302.531C203.782 301.541 203.971 300.29 203.971 298.778C203.971 297.248 203.782 295.996 203.404 295.024C203.044 294.034 202.54 293.305 201.892 292.837C201.244 292.351 200.478 292.108 199.596 292.108C198.75 292.108 197.994 292.351 197.328 292.837C196.68 293.305 196.167 294.034 195.789 295.024C195.429 295.996 195.249 297.248 195.249 298.778C195.249 300.29 195.429 301.541 195.789 302.531C196.167 303.522 196.68 304.26 197.328 304.746C197.994 305.214 198.75 305.448 199.596 305.448ZM217.469 308.499C215.903 308.499 214.544 308.265 213.391 307.797C212.239 307.329 211.348 306.672 210.718 305.826C210.088 304.962 209.773 303.954 209.773 302.801C209.773 301.649 210.079 300.677 210.691 299.885C211.303 299.093 212.185 298.49 213.337 298.076C214.49 297.662 215.867 297.455 217.469 297.455C219.071 297.455 220.448 297.662 221.601 298.076C222.771 298.49 223.662 299.102 224.274 299.912C224.904 300.704 225.219 301.667 225.219 302.801C225.219 303.954 224.895 304.962 224.247 305.826C223.617 306.672 222.717 307.329 221.547 307.797C220.394 308.265 219.035 308.499 217.469 308.499ZM217.469 305.745C218.765 305.745 219.791 305.475 220.547 304.935C221.304 304.395 221.682 303.648 221.682 302.693C221.682 301.757 221.304 301.019 220.547 300.479C219.791 299.939 218.765 299.669 217.469 299.669C216.173 299.669 215.156 299.939 214.418 300.479C213.679 301.019 213.31 301.757 213.31 302.693C213.31 303.648 213.679 304.395 214.418 304.935C215.156 305.475 216.173 305.745 217.469 305.745ZM217.469 299.291C216.011 299.291 214.76 299.102 213.715 298.724C212.671 298.328 211.861 297.761 211.285 297.023C210.727 296.266 210.448 295.366 210.448 294.322C210.448 293.242 210.736 292.315 211.312 291.541C211.906 290.749 212.734 290.137 213.796 289.704C214.859 289.272 216.083 289.056 217.469 289.056C218.873 289.056 220.106 289.272 221.169 289.704C222.231 290.137 223.059 290.749 223.653 291.541C224.247 292.315 224.544 293.242 224.544 294.322C224.544 295.366 224.256 296.266 223.68 297.023C223.122 297.761 222.312 298.328 221.25 298.724C220.187 299.102 218.927 299.291 217.469 299.291ZM217.469 297.131C218.585 297.131 219.467 296.897 220.115 296.428C220.764 295.942 221.088 295.294 221.088 294.484C221.088 293.638 220.755 292.981 220.088 292.513C219.422 292.045 218.549 291.811 217.469 291.811C216.389 291.811 215.525 292.045 214.877 292.513C214.229 292.981 213.905 293.638 213.905 294.484C213.905 295.294 214.22 295.942 214.85 296.428C215.498 296.897 216.371 297.131 217.469 297.131ZM235.085 308.499C233.519 308.499 232.16 308.265 231.007 307.797C229.855 307.329 228.964 306.672 228.334 305.826C227.704 304.962 227.389 303.954 227.389 302.801C227.389 301.649 227.695 300.677 228.307 299.885C228.919 299.093 229.801 298.49 230.953 298.076C232.106 297.662 233.483 297.455 235.085 297.455C236.687 297.455 238.064 297.662 239.217 298.076C240.387 298.49 241.278 299.102 241.89 299.912C242.52 300.704 242.835 301.667 242.835 302.801C242.835 303.954 242.511 304.962 241.863 305.826C241.233 306.672 240.333 307.329 239.163 307.797C238.01 308.265 236.651 308.499 235.085 308.499ZM235.085 305.745C236.381 305.745 237.407 305.475 238.163 304.935C238.92 304.395 239.298 303.648 239.298 302.693C239.298 301.757 238.92 301.019 238.163 300.479C237.407 299.939 236.381 299.669 235.085 299.669C233.789 299.669 232.772 299.939 232.033 300.479C231.295 301.019 230.926 301.757 230.926 302.693C230.926 303.648 231.295 304.395 232.033 304.935C232.772 305.475 233.789 305.745 235.085 305.745ZM235.085 299.291C233.627 299.291 232.376 299.102 231.331 298.724C230.287 298.328 229.477 297.761 228.901 297.023C228.343 296.266 228.064 295.366 228.064 294.322C228.064 293.242 228.352 292.315 228.928 291.541C229.522 290.749 230.35 290.137 231.412 289.704C232.475 289.272 233.699 289.056 235.085 289.056C236.489 289.056 237.722 289.272 238.785 289.704C239.847 290.137 240.675 290.749 241.269 291.541C241.863 292.315 242.16 293.242 242.16 294.322C242.16 295.366 241.872 296.266 241.296 297.023C240.738 297.761 239.928 298.328 238.866 298.724C237.803 299.102 236.543 299.291 235.085 299.291ZM235.085 297.131C236.201 297.131 237.083 296.897 237.731 296.428C238.379 295.942 238.703 295.294 238.703 294.484C238.703 293.638 238.37 292.981 237.704 292.513C237.038 292.045 236.165 291.811 235.085 291.811C234.005 291.811 233.141 292.045 232.493 292.513C231.844 292.981 231.52 293.638 231.52 294.484C231.52 295.294 231.835 295.942 232.466 296.428C233.114 296.897 233.987 297.131 235.085 297.131ZM244.843 303.936V301.505L254.159 289.326H257.913L248.731 301.505L246.976 300.965H261.963V303.936H244.843ZM255.212 308.229V303.936L255.32 300.965V297.158H258.615V308.229H255.212Z" fill="white"/>
<path d="M34.9119 104.762V90.5851H41.5549C43.2562 90.5851 44.5524 90.9226 45.4435 91.5977C46.3346 92.2593 46.7802 93.1505 46.7802 94.2711C46.7802 95.0272 46.6047 95.6753 46.2536 96.2154C45.9026 96.742 45.43 97.1538 44.8359 97.4509C44.2553 97.7344 43.6207 97.8762 42.9321 97.8762L43.2967 97.1471C44.0933 97.1471 44.8089 97.2956 45.4435 97.5926C46.0781 97.8762 46.5777 98.2947 46.9422 98.8483C47.3203 99.4019 47.5093 100.091 47.5093 100.914C47.5093 102.129 47.0435 103.074 46.1119 103.75C45.1802 104.425 43.7963 104.762 41.96 104.762H34.9119ZM37.5448 102.696H41.798C42.7836 102.696 43.5397 102.534 44.0663 102.21C44.5929 101.886 44.8562 101.366 44.8562 100.651C44.8562 99.9487 44.5929 99.4357 44.0663 99.1116C43.5397 98.7741 42.7836 98.6053 41.798 98.6053H37.3423V96.5597H41.2714C42.1895 96.5597 42.8916 96.3977 43.3777 96.0737C43.8773 95.7496 44.1271 95.2635 44.1271 94.6154C44.1271 93.9538 43.8773 93.461 43.3777 93.137C42.8916 92.8129 42.1895 92.6509 41.2714 92.6509H37.5448V102.696ZM48.3142 104.762L54.6939 90.5851H57.2863L63.6863 104.762H60.9319L55.4433 91.9825H56.4964L51.0281 104.762H48.3142ZM51.2509 101.481L51.9598 99.4154H59.6154L60.3243 101.481H51.2509ZM65.4893 104.762V90.5851H71.3221C72.5778 90.5851 73.6512 90.7876 74.5424 91.1927C75.447 91.5977 76.1424 92.1783 76.6284 92.9344C77.1145 93.6905 77.3576 94.5884 77.3576 95.6281C77.3576 96.6677 77.1145 97.5656 76.6284 98.3217C76.1424 99.0644 75.447 99.6382 74.5424 100.043C73.6512 100.435 72.5778 100.631 71.3221 100.631H66.9475L68.1222 99.4357V104.762H65.4893ZM74.7652 104.762L71.1804 99.6179H73.9955L77.6006 104.762H74.7652ZM68.1222 99.7192L66.9475 98.4635H71.2006C72.3618 98.4635 73.2327 98.2137 73.8133 97.7141C74.4074 97.2146 74.7044 96.5192 74.7044 95.6281C74.7044 94.7235 74.4074 94.0281 73.8133 93.542C73.2327 93.056 72.3618 92.8129 71.2006 92.8129H66.9475L68.1222 91.5167V99.7192ZM84.6982 104.965C83.591 104.965 82.5311 104.809 81.5184 104.499C80.5058 104.175 79.7024 103.763 79.1083 103.263L80.0197 101.218C80.5868 101.663 81.2889 102.035 82.126 102.332C82.9632 102.629 83.8205 102.777 84.6982 102.777C85.4408 102.777 86.0416 102.696 86.5007 102.534C86.9598 102.372 87.2973 102.156 87.5133 101.886C87.7294 101.603 87.8374 101.285 87.8374 100.934C87.8374 100.502 87.6821 100.158 87.3716 99.9015C87.061 99.6314 86.656 99.4222 86.1564 99.2736C85.6703 99.1116 85.1235 98.9631 84.5159 98.8281C83.9218 98.693 83.321 98.5378 82.7134 98.3622C82.1193 98.1732 81.5725 97.9369 81.0729 97.6534C80.5868 97.3563 80.1885 96.9648 79.8779 96.4787C79.5674 95.9926 79.4121 95.3715 79.4121 94.6154C79.4121 93.8458 79.6147 93.1437 80.0197 92.5091C80.4383 91.861 81.0661 91.3479 81.9033 90.9699C82.7539 90.5783 83.8273 90.3826 85.1235 90.3826C85.9741 90.3826 86.818 90.4906 87.6551 90.7066C88.4922 90.9226 89.2213 91.2332 89.8424 91.6382L89.0121 93.6838C88.3775 93.3057 87.7226 93.0289 87.0475 92.8534C86.3724 92.6644 85.7243 92.5699 85.1032 92.5699C84.3741 92.5699 83.78 92.6576 83.321 92.8332C82.8754 93.0087 82.5446 93.2382 82.3286 93.5218C82.126 93.8053 82.0248 94.1294 82.0248 94.4939C82.0248 94.926 82.1733 95.277 82.4703 95.5471C82.7809 95.8036 83.1792 96.0061 83.6653 96.1547C84.1648 96.3032 84.7184 96.4517 85.326 96.6002C85.9336 96.7353 86.5344 96.8905 87.1285 97.0661C87.7361 97.2416 88.283 97.4711 88.769 97.7547C89.2686 98.0382 89.6669 98.423 89.964 98.9091C90.2745 99.3952 90.4298 100.009 90.4298 100.752C90.4298 101.508 90.2205 102.21 89.8019 102.858C89.3969 103.493 88.769 104.006 87.9184 104.398C87.0678 104.776 85.9944 104.965 84.6982 104.965ZM99.6025 104.965C98.5223 104.965 97.5164 104.789 96.5848 104.438C95.6667 104.074 94.8633 103.567 94.1747 102.919C93.4996 102.258 92.973 101.481 92.595 100.59C92.2169 99.6989 92.0279 98.7268 92.0279 97.6736C92.0279 96.6205 92.2169 95.6483 92.595 94.7572C92.973 93.8661 93.5063 93.0965 94.1949 92.4484C94.8835 91.7868 95.6869 91.2804 96.6051 90.9294C97.5232 90.5648 98.5291 90.3826 99.6228 90.3826C100.784 90.3826 101.844 90.5851 102.802 90.9901C103.761 91.3817 104.571 91.969 105.233 92.7522L103.532 94.3521C103.019 93.7986 102.445 93.3868 101.81 93.1167C101.175 92.8332 100.487 92.6914 99.7443 92.6914C99.0017 92.6914 98.3198 92.8129 97.6987 93.056C97.0911 93.299 96.5578 93.6433 96.0987 94.0889C95.6532 94.5344 95.3021 95.061 95.0456 95.6686C94.8025 96.2762 94.681 96.9445 94.681 97.6736C94.681 98.4028 94.8025 99.0711 95.0456 99.6787C95.3021 100.286 95.6532 100.813 96.0987 101.258C96.5578 101.704 97.0911 102.048 97.6987 102.291C98.3198 102.534 99.0017 102.656 99.7443 102.656C100.487 102.656 101.175 102.521 101.81 102.251C102.445 101.967 103.019 101.542 103.532 100.975L105.233 102.595C104.571 103.365 103.761 103.952 102.802 104.357C101.844 104.762 100.777 104.965 99.6025 104.965ZM114.102 104.965C112.995 104.965 111.975 104.782 111.044 104.418C110.112 104.053 109.302 103.547 108.613 102.899C107.925 102.237 107.391 101.468 107.013 100.59C106.635 99.6989 106.446 98.7268 106.446 97.6736C106.446 96.6205 106.635 95.6551 107.013 94.7775C107.391 93.8863 107.925 93.1167 108.613 92.4686C109.302 91.807 110.112 91.2939 111.044 90.9294C111.975 90.5648 112.988 90.3826 114.082 90.3826C115.189 90.3826 116.202 90.5648 117.12 90.9294C118.051 91.2939 118.861 91.807 119.55 92.4686C120.239 93.1167 120.772 93.8863 121.15 94.7775C121.528 95.6551 121.717 96.6205 121.717 97.6736C121.717 98.7268 121.528 99.6989 121.15 100.59C120.772 101.481 120.239 102.251 119.55 102.899C118.861 103.547 118.051 104.053 117.12 104.418C116.202 104.782 115.196 104.965 114.102 104.965ZM114.082 102.656C114.797 102.656 115.459 102.534 116.066 102.291C116.674 102.048 117.201 101.704 117.646 101.258C118.092 100.799 118.436 100.273 118.679 99.6787C118.936 99.0711 119.064 98.4028 119.064 97.6736C119.064 96.9445 118.936 96.2829 118.679 95.6888C118.436 95.0813 118.092 94.5547 117.646 94.1091C117.201 93.65 116.674 93.299 116.066 93.056C115.459 92.8129 114.797 92.6914 114.082 92.6914C113.366 92.6914 112.704 92.8129 112.097 93.056C111.503 93.299 110.976 93.65 110.517 94.1091C110.072 94.5547 109.721 95.0813 109.464 95.6888C109.221 96.2829 109.099 96.9445 109.099 97.6736C109.099 98.3893 109.221 99.0509 109.464 99.6584C109.721 100.266 110.072 100.799 110.517 101.258C110.963 101.704 111.489 102.048 112.097 102.291C112.704 102.534 113.366 102.656 114.082 102.656ZM124.508 104.762V90.5851H127.141V104.762H124.508ZM130.975 104.762V90.5851H133.142L142.034 101.501H140.96V90.5851H143.573V104.762H141.406L132.515 93.8458H133.588V104.762H130.975Z" fill="#CCCCCC"/>
<path d="M194.87 71.8509V62.7371H197.037V71.8509H194.87ZM191.286 68.3067V66.2814H200.622V68.3067H191.286ZM207.505 74.5851C206.506 74.5851 205.527 74.4433 204.568 74.1598C203.623 73.8627 202.827 73.4577 202.179 72.9446L203.293 70.899C203.806 71.3176 204.427 71.6552 205.156 71.9117C205.898 72.1682 206.668 72.2965 207.465 72.2965C208.396 72.2965 209.125 72.1007 209.652 71.7092C210.192 71.3176 210.462 70.791 210.462 70.1294C210.462 69.6839 210.347 69.2923 210.118 68.9548C209.902 68.6172 209.51 68.3607 208.943 68.1851C208.39 68.0096 207.627 67.9218 206.655 67.9218H203.232L203.961 60.2054H212.285V62.413H204.933L206.31 61.1573L205.763 66.9295L204.386 65.694H207.242C208.646 65.694 209.773 65.883 210.624 66.2611C211.488 66.6257 212.116 67.1387 212.508 67.8003C212.913 68.4484 213.115 69.191 213.115 70.0282C213.115 70.8518 212.913 71.6079 212.508 72.2965C212.103 72.9851 211.481 73.5387 210.644 73.9573C209.821 74.3758 208.774 74.5851 207.505 74.5851ZM214.735 77.4408L215.91 72.9649L216.254 74.4636C215.782 74.4636 215.383 74.3218 215.059 74.0383C214.749 73.7412 214.593 73.3429 214.593 72.8433C214.593 72.3303 214.749 71.9252 215.059 71.6282C215.383 71.3176 215.775 71.1623 216.234 71.1623C216.706 71.1623 217.098 71.3176 217.409 71.6282C217.719 71.9387 217.874 72.3438 217.874 72.8433C217.874 72.9784 217.861 73.1269 217.834 73.2889C217.807 73.4374 217.76 73.613 217.692 73.8155C217.638 74.018 217.544 74.2746 217.409 74.5851L216.376 77.4408H214.735ZM221.651 74.3826L227.505 61.2586L228.193 62.4333H220.153L221.408 61.1573V64.8434H218.958V60.2054H229.975V61.9675L224.467 74.3826H221.651ZM237.345 74.5851C236.062 74.5851 234.962 74.3151 234.044 73.775C233.125 73.2214 232.423 72.4248 231.937 71.3851C231.451 70.3455 231.208 69.0628 231.208 67.537C231.208 65.9168 231.498 64.5463 232.079 63.4257C232.673 62.305 233.49 61.4544 234.53 60.8738C235.583 60.2932 236.791 60.0029 238.155 60.0029C238.871 60.0029 239.552 60.0772 240.201 60.2257C240.862 60.3742 241.422 60.6038 241.882 60.9143L240.909 62.8991C240.518 62.6426 240.092 62.467 239.633 62.3725C239.188 62.2645 238.715 62.2105 238.216 62.2105C236.879 62.2105 235.819 62.6223 235.036 63.4459C234.253 64.2696 233.861 65.4847 233.861 67.0915C233.861 67.348 233.868 67.6518 233.882 68.0029C233.895 68.3404 233.942 68.6847 234.023 69.0358L233.213 68.1446C233.456 67.591 233.787 67.132 234.206 66.7674C234.638 66.3894 235.144 66.1058 235.725 65.9168C236.319 65.7278 236.96 65.6333 237.649 65.6333C238.58 65.6333 239.411 65.8155 240.14 66.1801C240.869 66.5311 241.449 67.0375 241.882 67.6991C242.314 68.3472 242.53 69.11 242.53 69.9877C242.53 70.9193 242.3 71.7294 241.841 72.418C241.382 73.1066 240.761 73.64 239.978 74.018C239.195 74.3961 238.317 74.5851 237.345 74.5851ZM237.203 72.5193C237.743 72.5193 238.222 72.4248 238.641 72.2357C239.06 72.0332 239.384 71.7497 239.613 71.3851C239.856 71.0206 239.978 70.5953 239.978 70.1092C239.978 69.3666 239.721 68.7792 239.208 68.3472C238.695 67.9151 238.006 67.6991 237.142 67.6991C236.575 67.6991 236.076 67.8071 235.644 68.0231C235.225 68.2256 234.887 68.5092 234.631 68.8737C234.388 69.2383 234.266 69.6569 234.266 70.1294C234.266 70.5615 234.381 70.9598 234.611 71.3244C234.84 71.6889 235.171 71.9792 235.603 72.1952C236.049 72.4113 236.582 72.5193 237.203 72.5193ZM245.495 74.3826L255.176 60.2054H257.161L247.48 74.3826H245.495ZM246.67 67.8408C246.008 67.8408 245.421 67.6788 244.908 67.3548C244.395 67.0307 243.996 66.5784 243.713 65.9978C243.429 65.4172 243.288 64.7354 243.288 63.9523C243.288 63.1691 243.429 62.4873 243.713 61.9067C243.996 61.3261 244.395 60.8738 244.908 60.5497C245.421 60.2257 246.008 60.0637 246.67 60.0637C247.358 60.0637 247.952 60.2257 248.452 60.5497C248.965 60.8738 249.363 61.3261 249.647 61.9067C249.931 62.4873 250.072 63.1691 250.072 63.9523C250.072 64.7354 249.931 65.4172 249.647 65.9978C249.363 66.5784 248.965 67.0307 248.452 67.3548C247.952 67.6788 247.358 67.8408 246.67 67.8408ZM246.69 66.4231C247.23 66.4231 247.649 66.2138 247.946 65.7953C248.256 65.3632 248.412 64.7489 248.412 63.9523C248.412 63.1556 248.256 62.548 247.946 62.1295C247.649 61.6974 247.23 61.4814 246.69 61.4814C246.15 61.4814 245.718 61.6974 245.394 62.1295C245.083 62.5615 244.928 63.1691 244.928 63.9523C244.928 64.7354 245.083 65.343 245.394 65.775C245.718 66.2071 246.15 66.4231 246.69 66.4231ZM255.966 74.5243C255.304 74.5243 254.717 74.3623 254.204 74.0383C253.691 73.7142 253.293 73.2619 253.009 72.6813C252.725 72.1007 252.584 71.4189 252.584 70.6358C252.584 69.8526 252.725 69.1708 253.009 68.5902C253.293 68.0096 253.691 67.5573 254.204 67.2332C254.717 66.9092 255.304 66.7472 255.966 66.7472C256.655 66.7472 257.249 66.9092 257.748 67.2332C258.261 67.5573 258.66 68.0096 258.943 68.5902C259.227 69.1708 259.368 69.8526 259.368 70.6358C259.368 71.4189 259.227 72.1007 258.943 72.6813C258.66 73.2619 258.261 73.7142 257.748 74.0383C257.249 74.3623 256.655 74.5243 255.966 74.5243ZM255.966 73.1066C256.506 73.1066 256.931 72.8906 257.242 72.4585C257.552 72.0265 257.708 71.4189 257.708 70.6358C257.708 69.8526 257.552 69.245 257.242 68.813C256.931 68.3809 256.506 68.1649 255.966 68.1649C255.439 68.1649 255.014 68.3809 254.69 68.813C254.379 69.2315 254.224 69.8391 254.224 70.6358C254.224 71.4324 254.379 72.0467 254.69 72.4788C255.014 72.8973 255.439 73.1066 255.966 73.1066Z" fill="white"/>
<path d="M192.346 346.853V327.816H193.642V346.853H192.346ZM192.852 344.585C191.772 344.585 190.739 344.423 189.753 344.099C188.768 343.761 187.991 343.329 187.424 342.803L188.173 341.223C188.714 341.696 189.402 342.087 190.239 342.398C191.076 342.708 191.947 342.864 192.852 342.864C193.676 342.864 194.344 342.769 194.857 342.58C195.37 342.391 195.748 342.135 195.991 341.81C196.234 341.473 196.356 341.095 196.356 340.676C196.356 340.19 196.194 339.799 195.87 339.502C195.559 339.205 195.147 338.968 194.634 338.793C194.135 338.604 193.581 338.442 192.973 338.307C192.366 338.172 191.751 338.016 191.13 337.841C190.523 337.652 189.962 337.416 189.449 337.132C188.95 336.848 188.545 336.47 188.234 335.998C187.924 335.512 187.768 334.891 187.768 334.135C187.768 333.405 187.957 332.737 188.335 332.13C188.727 331.508 189.321 331.016 190.118 330.651C190.928 330.273 191.954 330.084 193.196 330.084C194.02 330.084 194.837 330.192 195.647 330.408C196.457 330.624 197.159 330.935 197.753 331.34L197.085 332.96C196.477 332.555 195.836 332.265 195.161 332.089C194.486 331.9 193.831 331.805 193.196 331.805C192.4 331.805 191.745 331.907 191.232 332.109C190.719 332.312 190.341 332.582 190.097 332.919C189.868 333.257 189.753 333.635 189.753 334.054C189.753 334.553 189.908 334.951 190.219 335.248C190.543 335.546 190.955 335.782 191.454 335.957C191.967 336.133 192.528 336.295 193.135 336.443C193.743 336.578 194.351 336.734 194.958 336.909C195.579 337.085 196.14 337.314 196.639 337.598C197.152 337.881 197.564 338.259 197.875 338.732C198.185 339.205 198.34 339.812 198.34 340.555C198.34 341.27 198.145 341.939 197.753 342.56C197.362 343.167 196.754 343.66 195.93 344.038C195.12 344.403 194.094 344.585 192.852 344.585ZM199.922 344.423V343.046L205.694 337.476C206.207 336.99 206.585 336.565 206.828 336.2C207.085 335.822 207.254 335.478 207.335 335.167C207.429 334.843 207.476 334.533 207.476 334.236C207.476 333.507 207.22 332.933 206.707 332.514C206.194 332.096 205.444 331.886 204.459 331.886C203.703 331.886 203.021 332.015 202.413 332.271C201.806 332.514 201.279 332.899 200.833 333.426L199.456 332.231C199.996 331.542 200.719 331.016 201.623 330.651C202.541 330.273 203.547 330.084 204.641 330.084C205.627 330.084 206.484 330.246 207.213 330.57C207.942 330.881 208.503 331.333 208.894 331.927C209.299 332.521 209.502 333.223 209.502 334.033C209.502 334.492 209.441 334.945 209.319 335.39C209.198 335.836 208.968 336.308 208.631 336.808C208.293 337.308 207.807 337.868 207.173 338.489L202.028 343.451L201.542 342.661H210.109V344.423H199.922ZM214.164 344.423V331.056L215.035 332.008H210.964V330.246H216.169V344.423H214.164ZM220.607 344.545C220.229 344.545 219.905 344.416 219.635 344.16C219.365 343.89 219.23 343.552 219.23 343.147C219.23 342.742 219.365 342.411 219.635 342.155C219.905 341.898 220.229 341.77 220.607 341.77C220.972 341.77 221.282 341.898 221.539 342.155C221.809 342.411 221.944 342.742 221.944 343.147C221.944 343.552 221.809 343.89 221.539 344.16C221.282 344.416 220.972 344.545 220.607 344.545ZM228.436 344.585C227.437 344.585 226.465 344.43 225.52 344.119C224.588 343.809 223.825 343.39 223.231 342.864L224.163 341.264C224.635 341.709 225.25 342.074 226.006 342.357C226.762 342.641 227.565 342.783 228.416 342.783C229.496 342.783 230.327 342.553 230.907 342.094C231.488 341.635 231.778 341.021 231.778 340.251C231.778 339.724 231.65 339.265 231.393 338.874C231.137 338.482 230.691 338.185 230.057 337.983C229.435 337.767 228.578 337.659 227.484 337.659H224.264L225.014 330.246H233.013V332.008H225.763L226.816 331.016L226.229 336.869L225.176 335.897H227.91C229.327 335.897 230.468 336.079 231.332 336.443C232.197 336.808 232.824 337.314 233.216 337.962C233.608 338.597 233.803 339.333 233.803 340.17C233.803 340.98 233.608 341.723 233.216 342.398C232.824 343.059 232.23 343.593 231.434 343.998C230.651 344.389 229.651 344.585 228.436 344.585ZM240.086 330.084C241.369 330.084 242.449 330.361 243.327 330.914C244.218 331.468 244.893 332.271 245.352 333.324C245.811 334.364 246.041 335.64 246.041 337.152C246.041 338.759 245.757 340.116 245.19 341.223C244.623 342.33 243.84 343.167 242.841 343.734C241.841 344.302 240.674 344.585 239.337 344.585C238.675 344.585 238.034 344.518 237.413 344.383C236.805 344.248 236.272 344.038 235.813 343.755L236.582 342.175C236.961 342.418 237.379 342.594 237.838 342.702C238.311 342.796 238.804 342.843 239.317 342.843C240.748 342.843 241.889 342.398 242.739 341.507C243.59 340.602 244.015 339.265 244.015 337.497C244.015 337.213 244.002 336.875 243.975 336.484C243.948 336.092 243.887 335.708 243.793 335.329L244.461 336.018C244.272 336.639 243.955 337.166 243.509 337.598C243.077 338.016 242.55 338.334 241.929 338.55C241.322 338.752 240.653 338.854 239.924 338.854C238.993 338.854 238.162 338.678 237.433 338.327C236.704 337.976 236.13 337.483 235.712 336.848C235.293 336.2 235.084 335.437 235.084 334.56C235.084 333.642 235.3 332.852 235.732 332.19C236.177 331.515 236.778 330.995 237.534 330.631C238.304 330.266 239.155 330.084 240.086 330.084ZM240.167 331.724C239.56 331.724 239.02 331.839 238.547 332.069C238.074 332.298 237.703 332.616 237.433 333.021C237.177 333.426 237.048 333.912 237.048 334.479C237.048 335.316 237.339 335.984 237.919 336.484C238.5 336.97 239.283 337.213 240.269 337.213C240.917 337.213 241.484 337.091 241.97 336.848C242.469 336.605 242.854 336.275 243.124 335.856C243.408 335.437 243.55 334.972 243.55 334.459C243.55 333.959 243.421 333.507 243.165 333.102C242.908 332.697 242.53 332.366 242.031 332.109C241.531 331.853 240.91 331.724 240.167 331.724ZM253.943 344.585C252.687 344.585 251.614 344.308 250.723 343.755C249.832 343.201 249.15 342.405 248.677 341.365C248.218 340.312 247.989 339.029 247.989 337.517C247.989 335.91 248.272 334.553 248.839 333.446C249.406 332.339 250.196 331.502 251.209 330.935C252.222 330.367 253.383 330.084 254.692 330.084C255.368 330.084 256.009 330.151 256.617 330.286C257.238 330.421 257.771 330.631 258.216 330.914L257.447 332.494C257.082 332.238 256.664 332.062 256.191 331.967C255.732 331.873 255.246 331.826 254.733 331.826C253.288 331.826 252.141 332.278 251.29 333.183C250.439 334.074 250.014 335.404 250.014 337.173C250.014 337.456 250.028 337.794 250.055 338.185C250.082 338.577 250.149 338.962 250.257 339.34L249.568 338.651C249.771 338.03 250.088 337.51 250.52 337.091C250.966 336.659 251.492 336.342 252.1 336.14C252.721 335.924 253.39 335.816 254.105 335.816C255.05 335.816 255.887 335.991 256.617 336.342C257.346 336.693 257.919 337.193 258.338 337.841C258.757 338.475 258.966 339.232 258.966 340.109C258.966 341.014 258.743 341.804 258.298 342.479C257.852 343.154 257.251 343.674 256.495 344.038C255.739 344.403 254.888 344.585 253.943 344.585ZM253.862 342.945C254.483 342.945 255.023 342.83 255.482 342.6C255.955 342.371 256.326 342.053 256.596 341.648C256.866 341.23 257.001 340.744 257.001 340.19C257.001 339.353 256.711 338.691 256.13 338.205C255.55 337.706 254.76 337.456 253.761 337.456C253.113 337.456 252.546 337.578 252.06 337.821C251.574 338.064 251.189 338.394 250.905 338.813C250.635 339.218 250.5 339.684 250.5 340.21C250.5 340.697 250.628 341.149 250.885 341.567C251.141 341.972 251.519 342.303 252.019 342.56C252.519 342.816 253.133 342.945 253.862 342.945Z" fill="#CCCCCC"/>
<g filter="url(#filter0_b_2001_721)">
<circle cx="66.7632" cy="312.921" r="32.0673" fill="#CACACA" fill-opacity="0.35"/>
</g>
<g clip-path="url(#clip0_2001_721)">
<path d="M55.0781 296.452C58.6618 296.054 61.9115 299.313 62.3215 299.359C65.313 298.471 68.3197 298.655 71.3264 299.282C73.9687 297.064 77.8409 295.121 80.9995 297.569C84.0973 299.955 83.9302 304.958 81.698 307.88C81.8802 309.38 83.2469 309.624 81.4095 310.114C82.7154 313.143 82.7002 316.539 83.7784 319.63L83.6721 319.737L81.7587 318.62L79.0254 323.378L78.995 322.078C78.995 322.078 78.8887 322.032 78.8128 322.047C78.6002 322.047 75.9276 325.183 75.715 325.168C75.5024 325.168 75.6087 324.296 75.1987 324.357C74.9557 324.388 73.0272 326.163 71.2049 327.264C69.8382 328.09 68.3804 328.763 66.9227 329.421C66.3304 329.482 63.3237 327.876 62.6404 327.494C60.2867 326.117 58.4796 324.311 58.2063 324.373C58.0392 324.403 58.0089 325.168 57.8418 325.183C57.614 325.199 55.0933 322.368 54.6681 322.062L54.4403 323.409L51.7069 318.651L49.7936 319.691C50.4617 317.672 50.6288 315.545 51.0843 313.48C51.4792 311.674 52.1777 310.297 52.1169 310.129C51.9043 309.502 50.4617 310.879 51.8284 307.896C48.8369 304.377 49.8543 297.018 55.0781 296.452Z" fill="white"/>
<path d="M55.3818 297.339C57.6596 297.171 60.2563 298.9 61.957 300.322C65.4041 299.511 68.0312 299.389 71.4783 300.322C73.8472 298.364 77.2639 296.115 80.2706 298.165C83.2925 300.246 82.9736 305.34 80.6047 307.804C80.4984 308.507 82.108 309.226 80.1643 309.364C81.4247 312.011 81.7132 314.948 82.3813 317.779C82.2295 318.039 81.3943 316.952 81.2424 317.075C81.0147 318.574 80.0428 319.737 79.3291 321.022C79.1013 319.783 79.0406 320.532 78.3269 321.282C77.6131 322.047 76.8387 322.766 76.0794 323.47C75.9124 322.032 75.5631 323.041 74.0142 324.219C71.7972 325.902 69.4131 327.371 66.8467 328.457C63.4908 327.218 60.393 325.153 57.7659 322.735C57.3103 322.72 57.8722 323.776 57.0977 323.256C56.0348 322.537 54.6377 320.349 54.4403 320.349C54.1973 320.349 54.4555 321.083 54.1821 320.976C53.9847 320.9 52.3295 318.069 52.2232 317.075L51.1451 317.855C51.8284 315.04 52.0714 312.087 53.3621 309.441C53.271 308.89 51.7069 310.068 52.9218 307.804C49.8999 304.912 50.4769 297.722 55.3818 297.339Z" fill="#141414"/>
<path d="M63.7945 323.24C64.083 323.24 64.1893 323.745 64.2349 323.76C64.3412 323.791 64.4323 323.301 66.3001 323.24C68.5931 323.164 69.0334 323.73 69.1853 323.684C69.3068 323.638 69.2916 323.24 69.5497 323.24C69.6257 323.24 70.4153 323.745 70.2483 324.25C70.1268 324.632 69.9294 324.128 69.8382 324.219C69.7471 324.311 69.5649 324.755 69.4131 324.969C69.1853 325.29 68.0312 325.872 67.6212 325.933C66.3912 326.101 65.4649 325.948 64.4474 325.336C64.3412 325.275 64.2197 325.107 64.2045 325.107C63.84 324.663 63.6882 324.25 63.6274 324.219C63.4452 324.128 63.3085 324.495 63.2174 324.403C62.9745 324.174 63.3845 323.271 63.7641 323.256" fill="white"/>
<path d="M69.0334 321.374L71.5846 321.481C71.2201 321.909 70.9468 322.139 70.6582 322.261C70.1116 322.476 69.6408 322.414 69.1853 322.338C68.6538 322.246 67.2112 322.017 67.1049 321.389C66.9682 320.609 69.1093 320.196 69.6256 318.406C69.7927 317.84 69.7471 317.274 69.6712 316.922C69.5042 317.335 69.413 317.534 69.3219 317.641C68.6538 318.391 64.1437 318.544 63.8704 316.922C63.5211 319.309 64.5385 318.941 65.8293 320.38C66.0419 320.624 66.6038 321.175 66.5734 321.42C66.4671 322.2 63.1719 322.812 62.1848 321.909C61.2737 321.068 62.7315 321.726 64.3563 321.282C63.263 320.731 60.8637 320.992 61.0004 319.309C61.3041 319.309 63.84 320.334 63.84 320.012C63.02 319.492 61.7748 318.268 61.0307 318.222C60.7878 317.718 61.9115 315.775 61.5167 315.729C60.1196 317.61 56.8396 319.049 59.3452 321.343C59.3755 321.649 58.2063 320.961 58.0544 320.854C56.5359 319.813 56.7485 318.666 56.7181 320.563C55.7007 319.462 55.154 317.396 54.911 315.912C54.0607 315.958 53.9544 318.176 53.8025 316.585C53.5292 313.663 54.744 309.808 56.0955 307.207C53.2862 306.84 53.924 303.704 53.2558 305.83C52.1017 303.872 52.7395 299.741 55.4729 299.588C57.2344 299.481 59.6033 300.934 61.0155 301.975C64.7967 301.332 68.6841 301.271 72.4653 301.975C74.4698 300.537 78.2206 298.028 80.1035 300.889C81.0602 302.342 81.0754 304.3 80.2858 305.83C79.6632 303.795 80.1491 306.626 77.3702 307.284C78.6761 309.15 80.2706 315.147 79.6632 317.106C79.5417 317.503 79.2683 316.157 78.6609 315.805C78.4787 316.891 77.7802 319.4 77.1424 320.15C76.4591 320.976 76.8235 320.272 76.8539 319.997C76.9298 318.819 75.9427 320.992 74.2268 321.45C73.9383 321.282 75.4568 320.441 75.0013 319.033C74.8494 318.544 72.3894 316.341 71.8579 315.729L72.5564 318.069L69.5345 319.997C69.5345 320.441 72.2223 319.217 72.3742 319.217C72.7538 319.232 72.526 320.074 72.0097 320.334" fill="white"/>
<path d="M77.112 301.042C77.112 301.042 77.1424 301.164 77.1424 301.24C77.0665 301.654 76.7628 302.174 76.6413 302.602C76.535 303 76.7628 302.923 77.3246 303.015C78.342 303.199 77.2487 303.872 77.4157 304.438C77.4917 304.759 77.932 304.866 78.0535 305.111C78.0839 305.157 78.0991 305.218 78.0687 305.279C77.8561 305.616 77.1576 305.279 76.7779 305.203C76.535 305.142 76.2465 305.05 76.0035 304.973C73.8624 304.285 74.0901 303.596 75.8668 301.975C76.1857 301.684 76.5653 301.348 76.8691 301.103C76.9602 301.042 77.0361 301.011 77.0816 301.042H77.112Z" fill="#141414"/>
<path d="M56.3233 301.042C56.3233 301.042 56.2929 301.164 56.2929 301.24C56.3688 301.654 56.6725 302.174 56.794 302.602C56.9003 303 56.6725 302.923 56.1107 303.015C55.0933 303.199 56.1866 303.872 56.0196 304.438C55.9436 304.759 55.5033 304.866 55.3818 305.111C55.3514 305.157 55.3362 305.218 55.3666 305.279C55.5792 305.616 56.2777 305.279 56.6574 305.203C56.9003 305.142 57.1888 305.05 57.4318 304.973C59.5729 304.285 59.3452 303.596 57.5685 301.975C57.2496 301.684 56.87 301.348 56.5662 301.103C56.4751 301.042 56.3992 301.011 56.3537 301.042H56.3233Z" fill="#141414"/>
<path d="M63.1263 306.779C63.7185 307.008 63.7337 308.018 63.673 308.615C63.5971 309.257 63.1567 310.252 62.3974 309.976C61.38 309.38 61.6989 306.641 63.0959 306.779H63.1111H63.1263Z" fill="#141414"/>
<path d="M77.4917 312.852C78.0839 312.638 78.1294 313.495 78.0839 313.893C77.9928 314.78 77.598 315.82 77.0361 316.402C76.1705 317.182 76.1857 315.361 76.3376 314.765C76.4591 314.061 76.8842 313.097 77.4765 312.852H77.4917Z" fill="#141414"/>
<path d="M70.2786 306.87C70.5823 306.656 70.9468 306.84 71.1746 307.1C71.7212 307.743 71.8579 309.058 71.3264 309.793C70.719 310.527 69.9901 309.548 69.8838 308.875C69.7319 308.263 69.8079 307.268 70.2634 306.886H70.2786V306.87Z" fill="#141414"/>
<path d="M55.7462 312.959C56.7485 312.883 57.1888 314.55 57.1888 315.422C57.1737 315.866 57.1585 316.524 56.6725 316.662C55.9285 316.631 55.2755 315.208 55.3211 314.244C55.3514 313.831 55.3362 313.128 55.7311 312.959H55.7462Z" fill="#141414"/>
<path d="M61.3041 303.795C62.1393 303.642 62.777 304.3 61.9722 304.912C61.4711 305.279 60.4385 305.448 60.1652 304.805C60.0741 304.224 60.7574 303.887 61.2585 303.795H61.2889H61.3041Z" fill="#141414"/>
<path d="M71.7668 303.795C72.2072 303.749 72.8146 303.933 73.1335 304.285C73.6042 304.774 73.1942 305.279 72.5868 305.249C72.2223 305.249 71.8123 305.08 71.539 304.851C70.9923 304.407 71.129 303.856 71.7212 303.795H71.7516H71.7668Z" fill="#141414"/>
<path d="M57.4318 310.053C58.1303 310.389 57.3863 311.735 56.7181 311.506C56.0348 311.139 56.7333 309.884 57.4014 310.053H57.4166H57.4318Z" fill="#141414"/>
<path d="M76.1098 310.037C76.8083 309.838 77.3398 311.001 76.7324 311.384C76.0642 311.705 75.3201 310.328 76.0794 310.037H76.0946H76.1098Z" fill="#141414"/>
<path d="M58.7378 314.78C59.1781 314.459 60.2867 315.484 60.0437 315.958C59.6944 316.402 58.4189 315.3 58.7378 314.795V314.78Z" fill="#141414"/>
<path d="M74.7127 314.596C75.3505 314.902 74.3179 316.172 73.7257 315.943C73.1031 315.576 74.1661 314.352 74.6824 314.581H74.6976L74.7127 314.596Z" fill="#141414"/>
<path d="M64.1893 301.959C65.1915 301.791 65.1156 302.923 64.1893 302.969C63.43 302.984 63.4452 302.128 64.1589 301.959H64.1893Z" fill="#141414"/>
<path d="M68.6993 302.082C68.8968 301.898 69.2916 301.929 69.5194 302.082C69.8231 302.25 69.9749 302.678 69.5953 302.847C69.2005 303.092 68.2742 302.571 68.669 302.097H68.6842L68.6993 302.082Z" fill="#141414"/>
<path d="M73.8775 307.62C74.242 307.177 75.5783 307.911 74.9405 308.37C74.5457 308.645 73.5435 308.125 73.8624 307.635L73.8775 307.62Z" fill="#141414"/>
<path d="M59.4666 307.635C60.1652 307.957 59.1478 308.615 58.6922 308.477C58.3126 308.385 58.3277 308.048 58.6315 307.834C58.8441 307.666 59.1933 307.544 59.4363 307.635H59.4666Z" fill="#141414"/>
<path d="M63.8097 305.111C64.1741 304.729 65.07 305.371 64.66 305.815C64.3108 306.136 63.4452 305.601 63.7945 305.142H63.8097V305.111Z" fill="#141414"/>
<path d="M69.2005 304.989C69.4586 304.851 69.8079 304.989 69.7927 305.295C69.7927 305.662 69.3068 306.075 68.9271 305.891C68.5475 305.662 68.8664 305.126 69.1853 304.989H69.2156H69.2005Z" fill="#141414"/>
<path d="M65.1156 303.428C65.8445 303.291 65.8597 304.254 65.146 304.27C64.5993 304.27 64.6145 303.566 65.0852 303.428H65.1156Z" fill="#141414"/>
<path d="M68.1679 303.443C68.7145 303.397 69.0942 304.178 68.3956 304.269C67.8641 304.315 67.4693 303.566 68.1375 303.443H68.1679Z" fill="#141414"/>
<path d="M67.8338 305.295C67.9553 305.264 68.0008 305.295 68.0767 305.356C68.2893 305.585 68.1375 306.06 67.849 306.182C67.6212 306.289 67.4541 306.044 67.4845 305.83C67.4845 305.631 67.6212 305.387 67.8034 305.31H67.8338V305.295Z" fill="#141414"/>
<path d="M65.3889 305.264C65.7838 305.05 66.2241 305.937 65.8901 306.182C65.4952 306.335 65.1156 305.555 65.3738 305.279H65.3889V305.264Z" fill="#141414"/>
<path d="M74.1357 310.297C74.2875 310.297 74.4242 310.297 74.5761 310.297C74.7735 310.435 73.6801 312.684 72.9512 313.204C71.6757 314.092 70.7494 313.219 70.3242 313.464C69.8231 314.29 69.7471 315.208 69.4738 316.111C68.9575 314.352 68.6082 311.261 70.9468 310.68C71.0986 310.634 73.9687 310.313 74.1205 310.313" fill="#141414"/>
<path d="M72.9512 311.032C73.422 311.047 73.0575 312.546 72.2831 312.898C71.0531 313.464 69.8231 312.149 70.6582 312.011C70.9164 311.965 71.1745 312.47 71.6149 312.378C72.1009 312.286 72.3894 311.017 72.9512 311.032Z" fill="white"/>
<path d="M58.844 310.298C61.9115 310.711 64.6297 310.175 64.3411 314.275C64.2956 314.841 64.0374 315.453 64.0071 316.019C63.02 312.424 63.1871 313.679 61.6381 313.633C60.1196 313.587 59.1629 311.552 58.8289 310.282" fill="#141414"/>
<path d="M60.317 311.032C61.2281 311.093 61.1218 312.087 61.7141 312.302C62.1241 312.439 63.1415 311.628 63.0808 312.409C63.0504 312.791 60.2867 314.092 60.317 311.032Z" fill="white"/>
</g>
<defs>
<filter id="filter0_b_2001_721" x="3.19591" y="249.354" width="127.135" height="127.135" filterUnits="userSpaceOnUse" color-interpolation-filters="sRGB">
<feFlood flood-opacity="0" result="BackgroundImageFix"/>
<feGaussianBlur in="BackgroundImageFix" stdDeviation="15.75"/>
<feComposite in2="SourceAlpha" operator="in" result="effect1_backgroundBlur_2001_721"/>
<feBlend mode="normal" in="SourceGraphic" in2="effect1_backgroundBlur_2001_721" result="shape"/>
</filter>
<clipPath id="clip0_2001_721">
<rect width="34" height="33" fill="white" transform="translate(49.7632 296.421)"/>
</clipPath>
</defs>
</svg>
