<svg width="488" height="488" viewBox="0 0 488 488" fill="none" xmlns="http://www.w3.org/2000/svg">
<rect width="488" height="488" fill="url(#paint0_linear_205_1518)"/>
<g filter="url(#filter0_dddd_205_1518)">
<path d="M111.481 175.418C121.059 174.365 129.744 182.993 130.839 183.115C138.835 180.765 146.87 181.251 154.906 182.912C161.967 177.039 172.316 171.894 180.758 178.375C189.037 184.694 188.591 197.94 182.625 205.677C183.112 209.647 186.764 210.295 181.854 211.591C185.344 219.611 185.303 228.604 188.185 236.786L187.901 237.069L182.787 234.113L175.482 246.71L175.401 243.267C175.401 243.267 175.117 243.145 174.914 243.186C174.346 243.186 167.203 251.49 166.635 251.449C166.066 251.449 166.351 249.14 165.255 249.302C164.605 249.383 159.451 254.082 154.581 256.999C150.929 259.186 147.033 260.968 143.136 262.71C141.554 262.872 133.518 258.619 131.692 257.606C125.401 253.961 120.572 249.181 119.841 249.343C119.395 249.424 119.314 251.449 118.867 251.49C118.258 251.53 111.521 244.037 110.385 243.226L109.776 246.791L102.471 234.194L97.3577 236.948C99.1434 231.601 99.5898 225.971 100.807 220.502C101.862 215.723 103.729 212.077 103.567 211.631C102.999 209.971 99.1434 213.616 102.796 205.717C94.8009 196.401 97.52 176.917 111.481 175.418Z" fill="white"/>
<path d="M112.292 177.768C118.38 177.322 125.319 181.899 129.865 185.667C139.077 183.52 146.098 183.196 155.311 185.667C161.642 180.482 170.774 174.527 178.809 179.955C186.885 185.464 186.033 198.953 179.702 205.474C179.418 207.338 183.72 209.241 178.525 209.606C181.894 216.614 182.665 224.391 184.45 231.885C184.045 232.573 181.812 229.697 181.407 230.021C180.798 233.991 178.2 237.069 176.293 240.472C175.684 237.191 175.522 239.176 173.614 241.161C171.707 243.186 169.637 245.09 167.608 246.953C167.162 243.145 166.228 245.819 162.089 248.938C156.163 253.394 149.792 257.282 142.933 260.158C133.964 256.877 125.685 251.409 118.664 245.009C117.446 244.968 118.948 247.763 116.878 246.386C114.037 244.482 110.303 238.69 109.776 238.69C109.126 238.69 109.816 240.634 109.086 240.35C108.558 240.148 104.135 232.654 103.851 230.021L100.969 232.087C102.795 224.634 103.445 216.816 106.894 209.808C106.651 208.35 102.471 211.469 105.717 205.474C97.6412 197.819 99.1834 178.78 112.292 177.768Z" fill="white"/>
<path d="M134.776 246.345C135.547 246.345 135.831 247.682 135.953 247.723C136.237 247.804 136.48 246.508 141.472 246.345C147.6 246.143 148.777 247.642 149.183 247.52C149.508 247.399 149.467 246.345 150.157 246.345C150.36 246.345 152.471 247.682 152.024 249.019C151.699 250.032 151.172 248.695 150.928 248.938C150.685 249.181 150.198 250.356 149.792 250.923C149.183 251.773 146.099 253.313 145.003 253.475C141.716 253.92 139.24 253.515 136.521 251.895C136.237 251.733 135.912 251.287 135.872 251.287C134.898 250.113 134.492 249.019 134.329 248.938C133.842 248.695 133.477 249.667 133.234 249.424C132.584 248.816 133.68 246.426 134.695 246.386" fill="white"/>
<path d="M148.777 241.404L155.595 241.687C154.621 242.821 153.891 243.429 153.12 243.753C151.659 244.32 150.401 244.158 149.183 243.956C147.763 243.713 143.907 243.105 143.623 241.444C143.258 239.378 148.98 238.285 150.36 233.545C150.806 232.047 150.685 230.548 150.482 229.616C150.035 230.71 149.792 231.237 149.548 231.52C147.763 233.505 135.709 233.91 134.979 229.616C134.045 235.935 136.764 234.963 140.214 238.771C140.782 239.419 142.284 240.877 142.203 241.525C141.918 243.591 133.112 245.211 130.474 242.821C128.039 240.594 131.935 242.335 136.277 241.161C133.355 239.702 126.943 240.391 127.308 235.935C128.12 235.935 134.897 238.649 134.897 237.799C132.706 236.421 129.378 233.181 127.389 233.059C126.74 231.723 129.743 226.578 128.688 226.457C124.954 231.439 116.188 235.247 122.885 241.323C122.966 242.133 119.841 240.31 119.435 240.027C115.376 237.272 115.945 234.234 115.864 239.257C113.144 236.34 111.683 230.872 111.034 226.943C108.761 227.064 108.477 232.938 108.071 228.725C107.341 220.988 110.588 210.781 114.2 203.895C106.692 202.922 108.396 194.619 106.61 200.249C103.526 195.064 105.23 184.127 112.536 183.722C117.243 183.439 123.574 187.287 127.349 190.041C137.454 188.34 147.844 188.178 157.949 190.041C163.306 186.234 173.33 179.591 178.363 187.165C180.92 191.014 180.96 196.198 178.85 200.249C177.186 194.862 178.485 202.355 171.058 204.097C174.548 209.039 178.809 224.918 177.186 230.102C176.861 231.156 176.131 227.591 174.507 226.659C174.02 229.535 172.154 236.178 170.449 238.163C168.623 240.351 169.597 238.487 169.678 237.758C169.881 234.639 167.243 240.391 162.657 241.606C161.886 241.161 165.944 238.933 164.727 235.206C164.321 233.91 157.746 228.077 156.326 226.457L158.193 232.654L150.116 237.758C150.116 238.933 157.3 235.692 157.706 235.692C158.72 235.733 158.111 237.961 156.732 238.649" fill="white"/>
<path d="M170.368 187.57C170.368 187.57 170.449 187.895 170.449 188.097C170.246 189.191 169.434 190.568 169.11 191.702C168.826 192.755 169.434 192.553 170.936 192.796C173.655 193.282 170.733 195.064 171.179 196.563C171.382 197.414 172.559 197.697 172.884 198.345C172.965 198.467 173.006 198.629 172.924 198.791C172.356 199.682 170.489 198.791 169.475 198.588C168.826 198.426 168.054 198.183 167.405 197.981C161.683 196.158 162.291 194.335 167.04 190.041C167.892 189.272 168.907 188.381 169.718 187.732C169.962 187.57 170.165 187.489 170.287 187.57H170.368Z" fill="white"/>
<path d="M114.809 187.57C114.809 187.57 114.728 187.895 114.728 188.097C114.931 189.191 115.742 190.568 116.067 191.702C116.351 192.755 115.742 192.553 114.241 192.796C111.521 193.282 114.444 195.064 113.997 196.563C113.794 197.414 112.617 197.697 112.293 198.345C112.211 198.467 112.171 198.629 112.252 198.791C112.82 199.682 114.687 198.791 115.702 198.588C116.351 198.426 117.122 198.183 117.771 197.981C123.494 196.158 122.885 194.335 118.137 190.041C117.284 189.272 116.27 188.381 115.458 187.732C115.215 187.57 115.012 187.489 114.89 187.57H114.809Z" fill="white"/>
<path d="M132.99 202.76C134.573 203.368 134.613 206.041 134.451 207.621C134.248 209.322 133.071 211.955 131.042 211.226C128.323 209.646 129.175 202.396 132.909 202.76H132.949H132.99Z" fill="white"/>
<path d="M171.382 218.842C172.965 218.275 173.087 220.543 172.965 221.596C172.722 223.946 171.666 226.7 170.165 228.239C167.852 230.305 167.892 225.485 168.298 223.905C168.623 222.042 169.759 219.49 171.342 218.842H171.382Z" fill="white"/>
<path d="M152.105 203.004C152.917 202.436 153.891 202.923 154.5 203.611C155.961 205.312 156.326 208.796 154.906 210.74C153.282 212.685 151.334 210.092 151.05 208.31C150.644 206.69 150.847 204.057 152.065 203.044H152.105V203.004Z" fill="white"/>
<path d="M113.266 219.125C115.945 218.922 117.122 223.338 117.122 225.647C117.081 226.821 117.04 228.563 115.742 228.928C113.753 228.847 112.008 225.079 112.13 222.528C112.211 221.434 112.17 219.571 113.226 219.125H113.266Z" fill="white"/>
<path d="M128.12 194.861C130.352 194.456 132.057 196.198 129.906 197.818C128.566 198.791 125.807 199.236 125.076 197.535C124.833 195.996 126.659 195.105 127.998 194.861H128.079H128.12Z" fill="white"/>
<path d="M156.083 194.862C157.259 194.74 158.883 195.226 159.735 196.158C160.993 197.454 159.897 198.791 158.274 198.71C157.3 198.71 156.204 198.264 155.474 197.657C154.013 196.482 154.378 195.024 155.961 194.862H156.042H156.083Z" fill="white"/>
<path d="M117.771 211.429C119.638 212.32 117.649 215.885 115.863 215.277C114.037 214.305 115.904 210.983 117.69 211.429H117.73H117.771Z" fill="white"/>
<path d="M167.69 211.388C169.556 210.862 170.977 213.94 169.353 214.953C167.568 215.803 165.579 212.158 167.608 211.388H167.649H167.69Z" fill="white"/>
<path d="M121.261 223.945C122.438 223.095 125.401 225.809 124.751 227.064C123.818 228.239 120.409 225.322 121.261 223.986V223.945Z" fill="white"/>
<path d="M163.956 223.459C165.66 224.27 162.901 227.632 161.318 227.024C159.654 226.052 162.495 222.811 163.875 223.419H163.915L163.956 223.459Z" fill="white"/>
<path d="M135.832 190.001C138.51 189.555 138.307 192.553 135.832 192.674C133.802 192.715 133.843 190.446 135.75 190.001H135.832Z" fill="white"/>
<path d="M147.885 190.325C148.413 189.839 149.468 189.92 150.077 190.325C150.888 190.771 151.294 191.905 150.28 192.35C149.224 192.998 146.749 191.621 147.804 190.365H147.845L147.885 190.325Z" fill="white"/>
<path d="M161.724 204.988C162.698 203.813 166.269 205.758 164.565 206.973C163.509 207.702 160.831 206.325 161.683 205.029L161.724 204.988Z" fill="white"/>
<path d="M123.209 205.029C125.076 205.879 122.357 207.621 121.14 207.257C120.125 207.014 120.166 206.122 120.977 205.555C121.545 205.11 122.479 204.786 123.128 205.029H123.209Z" fill="white"/>
<path d="M134.817 198.345C135.791 197.332 138.185 199.034 137.089 200.208C136.156 201.059 133.843 199.641 134.776 198.426H134.817V198.345Z" fill="white"/>
<path d="M149.224 198.021C149.914 197.657 150.847 198.021 150.807 198.831C150.807 199.804 149.508 200.897 148.493 200.411C147.479 199.804 148.331 198.386 149.183 198.021H149.265H149.224Z" fill="white"/>
<path d="M138.307 193.889C140.255 193.525 140.296 196.077 138.388 196.117C136.927 196.117 136.968 194.254 138.226 193.889H138.307Z" fill="white"/>
<path d="M146.464 193.93C147.925 193.809 148.94 195.874 147.073 196.117C145.653 196.239 144.597 194.254 146.383 193.93H146.464Z" fill="white"/>
<path d="M145.571 198.831C145.896 198.75 146.018 198.831 146.22 198.993C146.789 199.601 146.383 200.857 145.612 201.181C145.003 201.464 144.557 200.816 144.638 200.249C144.638 199.722 145.003 199.074 145.49 198.872H145.571V198.831Z" fill="white"/>
<path d="M139.038 198.75C140.093 198.183 141.27 200.533 140.377 201.181C139.322 201.586 138.307 199.52 138.997 198.791H139.038V198.75Z" fill="white"/>
<path d="M162.414 212.077C162.819 212.077 163.185 212.077 163.59 212.077C164.118 212.441 161.196 218.396 159.248 219.773C155.839 222.123 153.363 219.814 152.227 220.462C150.888 222.649 150.685 225.079 149.954 227.469C148.574 222.811 147.641 214.629 153.891 213.09C154.297 212.968 161.967 212.117 162.373 212.117" fill="white"/>
<path d="M159.249 214.021C160.507 214.062 159.533 218.031 157.463 218.963C154.176 220.462 150.888 216.978 153.12 216.614C153.81 216.492 154.5 217.829 155.677 217.586C156.976 217.343 157.747 213.981 159.249 214.021Z" fill="white"/>
<path d="M121.546 212.077C129.744 213.171 137.008 211.753 136.237 222.609C136.115 224.108 135.425 225.728 135.344 227.227C132.706 217.708 133.153 221.029 129.013 220.908C124.955 220.786 122.398 215.399 121.505 212.037" fill="white"/>
<path d="M125.482 214.021C127.917 214.183 127.633 216.816 129.216 217.383C130.311 217.748 133.03 215.601 132.868 217.667C132.787 218.68 125.401 222.123 125.482 214.021Z" fill="white"/>
<path d="M234.377 255.753C228.982 255.753 224.324 254.579 220.403 252.231C216.507 249.883 213.497 246.599 211.374 242.378C209.277 238.157 208.228 233.25 208.228 227.655C208.228 222.061 209.277 217.153 211.374 212.932C213.497 208.711 216.507 205.427 220.403 203.079C224.324 200.731 228.982 199.557 234.377 199.557C240.571 199.557 245.766 201.093 249.962 204.165C254.183 207.237 257.155 211.396 258.878 216.641L248.613 219.488C247.614 216.216 245.928 213.681 243.556 211.883C241.183 210.06 238.124 209.148 234.377 209.148C230.955 209.148 228.096 209.91 225.798 211.433C223.525 212.957 221.814 215.105 220.665 217.877C219.517 220.649 218.942 223.909 218.942 227.655C218.942 231.401 219.517 234.661 220.665 237.433C221.814 240.205 223.525 242.353 225.798 243.877C228.096 245.4 230.955 246.162 234.377 246.162C238.124 246.162 241.183 245.25 243.556 243.427C245.928 241.604 247.614 239.069 248.613 235.822L258.878 238.669C257.155 243.914 254.183 248.073 249.962 251.145C245.766 254.217 240.571 255.753 234.377 255.753ZM294.701 254.629V235.522C294.701 234.598 294.651 233.424 294.551 232.001C294.451 230.552 294.139 229.104 293.614 227.655C293.09 226.206 292.228 224.995 291.029 224.021C289.855 223.047 288.182 222.56 286.009 222.56C285.135 222.56 284.198 222.697 283.199 222.972C282.2 223.247 281.264 223.784 280.389 224.583C279.515 225.357 278.791 226.506 278.217 228.03C277.667 229.553 277.392 231.576 277.392 234.099L271.548 231.327C271.548 228.13 272.197 225.133 273.496 222.335C274.795 219.538 276.743 217.278 279.34 215.554C281.963 213.831 285.26 212.969 289.231 212.969C292.403 212.969 294.988 213.506 296.986 214.58C298.984 215.654 300.532 217.015 301.631 218.664C302.755 220.312 303.554 222.036 304.029 223.834C304.504 225.607 304.791 227.23 304.891 228.704C304.991 230.178 305.041 231.252 305.041 231.926V254.629H294.701ZM267.052 254.629V200.681H276.119V228.404H277.392V254.629H267.052ZM326.001 255.753C323.104 255.753 320.644 255.203 318.62 254.104C316.622 252.98 315.099 251.494 314.05 249.646C313.026 247.773 312.514 245.713 312.514 243.465C312.514 241.592 312.801 239.881 313.376 238.332C313.95 236.784 314.874 235.423 316.148 234.249C317.447 233.05 319.182 232.051 321.355 231.252C322.854 230.702 324.64 230.215 326.713 229.791C328.786 229.366 331.133 228.966 333.756 228.592C336.378 228.192 339.263 227.755 342.41 227.28L338.738 229.303C338.738 226.906 338.164 225.145 337.015 224.021C335.866 222.897 333.943 222.335 331.246 222.335C329.747 222.335 328.186 222.697 326.563 223.422C324.939 224.146 323.803 225.432 323.154 227.28L313.938 224.358C314.962 221.012 316.885 218.289 319.707 216.191C322.529 214.093 326.375 213.044 331.246 213.044C334.817 213.044 337.989 213.594 340.761 214.693C343.534 215.792 345.632 217.69 347.055 220.387C347.855 221.886 348.329 223.384 348.479 224.883C348.629 226.381 348.704 228.055 348.704 229.903V254.629H339.787V246.312L341.061 248.035C339.088 250.758 336.953 252.731 334.655 253.955C332.382 255.153 329.497 255.753 326.001 255.753ZM328.174 247.736C330.047 247.736 331.62 247.411 332.894 246.762C334.193 246.087 335.217 245.325 335.966 244.476C336.74 243.627 337.265 242.915 337.54 242.341C338.064 241.242 338.364 239.968 338.439 238.52C338.539 237.046 338.589 235.822 338.589 234.848L341.586 235.597C338.564 236.097 336.116 236.521 334.243 236.871C332.37 237.196 330.859 237.496 329.71 237.77C328.561 238.045 327.549 238.345 326.675 238.669C325.676 239.069 324.864 239.506 324.24 239.981C323.641 240.43 323.191 240.93 322.891 241.479C322.617 242.029 322.479 242.641 322.479 243.315C322.479 244.239 322.704 245.038 323.154 245.713C323.628 246.362 324.29 246.861 325.139 247.211C325.988 247.561 327 247.736 328.174 247.736ZM382.721 254.629C379.924 255.153 377.177 255.378 374.479 255.303C371.807 255.253 369.409 254.791 367.286 253.917C365.188 253.018 363.59 251.582 362.491 249.609C361.492 247.761 360.967 245.887 360.917 243.989C360.868 242.066 360.843 239.893 360.843 237.471V202.929H371.033V236.871C371.033 238.445 371.045 239.868 371.07 241.142C371.12 242.391 371.382 243.39 371.857 244.139C372.756 245.563 374.192 246.337 376.165 246.462C378.138 246.587 380.324 246.487 382.721 246.162V254.629ZM353.949 222.036V214.168H382.721V222.036H353.949Z" fill="white"/>
</g>
<defs>
<filter id="filter0_dddd_205_1518" x="92.4305" y="170.402" width="303.139" height="97.2397" filterUnits="userSpaceOnUse" color-interpolation-filters="sRGB">
<feFlood flood-opacity="0" result="BackgroundImageFix"/>
<feColorMatrix in="SourceAlpha" type="matrix" values="0 0 0 0 0 0 0 0 0 0 0 0 0 0 0 0 0 0 127 0" result="hardAlpha"/>
<feOffset/>
<feGaussianBlur stdDeviation="0.175971"/>
<feColorMatrix type="matrix" values="0 0 0 0 1 0 0 0 0 1 0 0 0 0 1 0 0 0 1 0"/>
<feBlend mode="normal" in2="BackgroundImageFix" result="effect1_dropShadow_205_1518"/>
<feColorMatrix in="SourceAlpha" type="matrix" values="0 0 0 0 0 0 0 0 0 0 0 0 0 0 0 0 0 0 127 0" result="hardAlpha"/>
<feOffset/>
<feGaussianBlur stdDeviation="0.351942"/>
<feColorMatrix type="matrix" values="0 0 0 0 1 0 0 0 0 1 0 0 0 0 1 0 0 0 1 0"/>
<feBlend mode="normal" in2="effect1_dropShadow_205_1518" result="effect2_dropShadow_205_1518"/>
<feColorMatrix in="SourceAlpha" type="matrix" values="0 0 0 0 0 0 0 0 0 0 0 0 0 0 0 0 0 0 127 0" result="hardAlpha"/>
<feOffset/>
<feGaussianBlur stdDeviation="1.2318"/>
<feColorMatrix type="matrix" values="0 0 0 0 1 0 0 0 0 1 0 0 0 0 1 0 0 0 1 0"/>
<feBlend mode="normal" in2="effect2_dropShadow_205_1518" result="effect3_dropShadow_205_1518"/>
<feColorMatrix in="SourceAlpha" type="matrix" values="0 0 0 0 0 0 0 0 0 0 0 0 0 0 0 0 0 0 127 0" result="hardAlpha"/>
<feOffset/>
<feGaussianBlur stdDeviation="2.46359"/>
<feColorMatrix type="matrix" values="0 0 0 0 1 0 0 0 0 1 0 0 0 0 1 0 0 0 1 0"/>
<feBlend mode="normal" in2="effect3_dropShadow_205_1518" result="effect4_dropShadow_205_1518"/>
<feBlend mode="normal" in="SourceGraphic" in2="effect4_dropShadow_205_1518" result="shape"/>
</filter>
<linearGradient id="paint0_linear_205_1518" x1="244" y1="0" x2="244" y2="488" gradientUnits="userSpaceOnUse">
<stop stop-color="#333333"/>
<stop offset="1"/>
</linearGradient>
</defs>
</svg>
