<svg width="488" height="311" viewBox="0 0 488 311" fill="none" xmlns="http://www.w3.org/2000/svg">
<g clip-path="url(#clip0_204_942)">
<path d="M0 42.0001C0 18.8041 18.804 0 42 0H445.584C468.78 0 487.584 18.804 487.584 42V269.075C487.584 292.271 468.78 311.075 445.584 311.075H42C18.804 311.075 0 292.271 0 269.075V42.0001Z" fill="#02387C"/>
<path d="M401.508 300.113H401.798L401.942 299.862L443.978 226.417L444.197 226.035L443.845 225.769L412.909 202.39L412.629 202.178L412.334 202.37L385.176 220.082L384.949 220.23V220.501V251.696L364.322 271.385L364.167 271.533V271.747V281.193V281.413L364.329 281.562L384.403 299.982L384.546 300.113H384.741H401.508ZM331.58 249.969L331.523 250.52H332.078H354.749H377.892H378.443L378.39 249.973L375.567 220.568L385.445 194.227L385.698 193.551H384.977H324.993H324.265L324.526 194.23L334.638 220.568L331.58 249.969ZM346.115 281.559L346.275 281.411V281.193V271.747V271.533L346.12 271.385L325.493 251.696V220.501V220.227L325.262 220.079L297.868 202.603L297.577 202.418L297.301 202.624L266.128 225.767L265.771 226.032L265.992 226.417L308.264 300.098L308.408 300.35H308.698H325.701H325.898L326.042 300.216L346.115 281.559ZM308.462 138.999H308.064L307.975 139.387L297.111 186.618L296.971 187.23H297.599H412.371H413.002L412.858 186.616L401.759 139.384L401.668 138.999H401.272H308.462ZM237.642 148.997L354.985 81.2726L472.328 148.997V284.447L354.985 352.172L237.642 284.447V148.997Z" stroke="#396FB5"/>
</g>
<defs>
<clipPath id="clip0_204_942">
<rect width="488" height="311" fill="white"/>
</clipPath>
</defs>
</svg>
