<svg width="37" height="43" viewBox="0 0 37 43" fill="none" xmlns="http://www.w3.org/2000/svg">
<path d="M18.3022 0L0 10.5632V31.6897L18.3022 42.2529L36.6045 31.6897V10.5632L18.3022 0ZM18.3022 0L0 10.5632V31.6897L18.3022 42.2529L36.6045 31.6897V10.5632L18.3022 0Z" fill="white"/>
<path d="M25.5278 34.0004H22.9237L19.806 31.1395V29.6724L23.0337 26.5914V21.7133L27.2516 18.9625L32.0564 22.5936L25.5278 34.0004ZM14.7445 26.298L15.2213 21.7133L13.6442 17.6054H22.9603L21.4199 21.7133L21.86 26.298H14.7445ZM16.8718 31.1395L13.7542 34.037H11.1134L4.54805 22.5936L9.38953 18.9991L13.6442 21.7133V26.5914L16.8718 29.6724V31.1395ZM11.0767 9.13279H25.4911L27.215 16.4684H9.38953L11.0767 9.13279ZM18.3022 0L0 10.5632V31.6897L18.3022 42.2529L36.6045 31.6897V10.5632L18.3022 0Z" fill="#03316C"/>
</svg>
