<svg width="103" height="102" viewBox="0 0 103 102" fill="none" xmlns="http://www.w3.org/2000/svg">
<path fill-rule="evenodd" clip-rule="evenodd" d="M33.2604 12.75H67.5938C78.8523 12.75 87.9792 21.7883 87.9792 32.9375V66.9375C87.9792 78.0867 78.8523 87.125 67.5938 87.125H33.2604C22.0019 87.125 12.875 78.0867 12.875 66.9375V32.9375C12.875 21.7883 22.0019 12.75 33.2604 12.75ZM67.5938 19.125H33.2604C25.5572 19.125 19.3125 25.3091 19.3125 32.9375V66.9375C19.3125 74.5659 25.5572 80.75 33.2604 80.75H67.5938C75.297 80.75 81.5417 74.5659 81.5417 66.9375V32.9375C81.5417 25.3091 75.297 19.125 67.5938 19.125ZM34.3333 49.9375C34.3333 41.1355 41.5387 34 50.4271 34C59.3154 34 66.5208 41.1355 66.5208 49.9375C66.5208 58.7395 59.3154 65.875 50.4271 65.875C41.5387 65.875 34.3333 58.7395 34.3333 49.9375ZM60.0833 49.9375C60.0833 44.6563 55.7601 40.375 50.4271 40.375C45.0941 40.375 40.7708 44.6563 40.7708 49.9375C40.7708 55.2187 45.0941 59.5 50.4271 59.5C55.7601 59.5 60.0833 55.2187 60.0833 49.9375ZM72.9289 30.38C72.7158 28.8242 71.3691 27.625 69.7396 27.625C67.9619 27.625 66.5208 29.0521 66.5208 30.8167L66.5502 31.2493C66.7633 32.8051 68.1101 34.0042 69.7396 34.0042C71.5172 34.0042 72.9583 32.5772 72.9583 30.8125L72.9289 30.38Z" fill="white"/>
</svg>
