<svg width="104" height="31" viewBox="0 0 104 31" fill="none" xmlns="http://www.w3.org/2000/svg">
<path d="M66.4763 20.6668H57.521C57.1406 20.6668 56.8321 20.9752 56.8321 21.3556V30.3111C56.8321 30.6915 57.1406 31 57.521 31H66.4763C66.8568 31 67.1653 30.6915 67.1653 30.3111V21.3556C67.1653 20.9752 66.8568 20.6668 66.4763 20.6668Z" fill="white"/>
<path d="M30.3104 0H0.688783C0.506103 0 0.330898 0.0725193 0.201777 0.201779C0.0725171 0.3309 0 0.506104 0 0.688922V30.3105C0 30.4932 0.0725171 30.6684 0.201777 30.7975C0.330898 30.9268 0.506103 30.9993 0.688783 30.9993H30.3104C30.4932 30.9993 30.6684 30.9268 30.7975 30.7975C30.9268 30.6684 30.9993 30.4932 30.9993 30.3105V0.688922C30.9993 0.506104 30.9268 0.3309 30.7975 0.201779C30.6684 0.0725193 30.4932 0 30.3104 0ZM20.6662 19.9774C20.6662 20.1601 20.5936 20.3353 20.4644 20.4645C20.3353 20.5936 20.1601 20.6663 19.9774 20.6663H11.0219C10.8393 20.6663 10.664 20.5936 10.5348 20.4645C10.4057 20.3353 10.3331 20.1601 10.3331 19.9774V11.0219C10.3331 10.8393 10.4057 10.664 10.5348 10.5349C10.664 10.4057 10.8393 10.3331 11.0219 10.3331H19.9774C20.1601 10.3331 20.3353 10.4057 20.4644 10.5349C20.5936 10.664 20.6662 10.8393 20.6662 11.0219V19.9774Z" fill="white"/>
<path d="M92.3263 10.3343H83.371C82.9905 10.3343 82.6821 10.6426 82.6821 11.023V19.9785C82.6821 20.3589 82.9905 20.6674 83.371 20.6674H92.3263C92.7067 20.6674 93.0152 20.3589 93.0152 19.9785V11.023C93.0152 10.6426 92.7067 10.3343 92.3263 10.3343Z" fill="white"/>
<path d="M81.989 0.000832016H73.0337C72.6533 0.000832016 72.3448 0.309172 72.3448 0.689754V9.64505C72.3448 10.0255 72.6533 10.334 73.0337 10.334H81.989C82.3696 10.334 82.6779 10.0255 82.6779 9.64505V0.689754C82.6779 0.309172 82.3696 0.000832016 81.989 0.000832016Z" fill="white"/>
<path d="M102.655 0.000832016H93.6998C93.3194 0.000832016 93.0109 0.309172 93.0109 0.689754V9.64505C93.0109 10.0255 93.3194 10.334 93.6998 10.334H102.655C103.036 10.334 103.344 10.0255 103.344 9.64505V0.689754C103.344 0.309172 103.036 0.000832016 102.655 0.000832016Z" fill="white"/>
<path d="M81.989 20.6668H73.0337C72.6533 20.6668 72.3448 20.9752 72.3448 21.3556V30.3111C72.3448 30.6915 72.6533 31 73.0337 31H81.989C82.3696 31 82.6779 30.6915 82.6779 30.3111V21.3556C82.6779 20.9752 82.3696 20.6668 81.989 20.6668Z" fill="white"/>
<path d="M102.655 20.6668H93.6998C93.3194 20.6668 93.0109 20.9752 93.0109 21.3556V30.3111C93.0109 30.6915 93.3194 31 93.6998 31H102.655C103.036 31 103.344 30.6915 103.344 30.3111V21.3556C103.344 20.9752 103.036 20.6668 102.655 20.6668Z" fill="white"/>
<path d="M66.5688 0.000832016H57.6135C57.233 0.000832016 56.9245 0.309172 56.9245 0.689754V9.64505C56.9245 10.0255 57.233 10.334 57.6135 10.334H66.5688C66.9492 10.334 67.2577 10.0255 67.2577 9.64505V0.689754C67.2577 0.309172 66.9492 0.000832016 66.5688 0.000832016Z" fill="white"/>
<path d="M54.295 11.0142C54.295 10.8315 54.2224 10.6563 54.0933 10.5272C53.964 10.3979 53.7888 10.3254 53.6061 10.3254H43.9619V0.688922C43.9619 0.506104 43.8892 0.3309 43.7601 0.201779C43.6309 0.0725193 43.4557 0 43.273 0H34.3177C34.1349 0 33.9597 0.0725193 33.8305 0.201779C33.7013 0.3309 33.6288 0.506104 33.6288 0.688922V30.295C33.6288 30.4777 33.7013 30.6529 33.8305 30.782C33.9597 30.9113 34.1349 30.9838 34.3177 30.9838H43.273C43.4557 30.9838 43.6309 30.9113 43.7601 30.782C43.8892 30.6529 43.9619 30.4777 43.9619 30.295V20.6585H53.6061C53.7888 20.6585 53.964 20.5859 54.0933 20.4568C54.2224 20.3275 54.295 20.1523 54.295 19.9696V11.0142Z" fill="white"/>
</svg>
