<svg width="488" height="311" viewBox="0 0 488 311" fill="none" xmlns="http://www.w3.org/2000/svg">
<g clip-path="url(#clip0_2036_933)">
<rect width="487.584" height="311.075" rx="42" fill="url(#paint0_linear_2036_933)"/>
<g opacity="0.3">
<path fill-rule="evenodd" clip-rule="evenodd" d="M303.167 125.007C299.235 104.563 314.961 85.6921 335.405 85.6921C353.49 85.6921 368.43 100.632 368.43 118.717V159.604C373.147 159.604 377.865 158.818 382.583 158.818C387.301 158.818 391.232 158.818 395.95 159.604V118.717C395.95 100.632 410.89 85.6921 428.975 85.6921C449.418 85.6921 465.144 104.563 461.999 125.007L453.35 172.971C484.016 186.338 507.604 209.927 507.604 239.02V257.105C507.604 281.481 491.879 301.924 469.076 315.292C446.273 329.445 416.394 337.308 382.583 337.308C348.772 337.308 318.893 329.445 296.09 315.292C274.074 301.924 258.348 281.481 258.348 257.105V239.02C258.348 209.927 281.15 186.338 311.816 172.971L303.167 125.007ZM441.555 179.262L451.777 122.648C454.136 108.495 443.914 95.1277 428.975 95.1277C416.394 95.1277 406.172 105.35 406.172 117.93V169.826C403.027 169.04 399.095 169.04 395.95 169.04C391.232 169.04 387.301 168.254 382.583 168.254C377.865 168.254 373.147 168.254 368.43 169.04C365.284 169.04 361.353 169.826 358.208 169.826V118.717C358.208 106.136 347.986 95.914 335.405 95.914C321.252 95.914 310.243 109.281 313.389 123.435L323.61 180.048C290.586 192.629 268.57 214.645 268.57 239.807V257.892C268.57 296.42 319.679 327.872 382.583 327.872C445.487 327.872 496.596 296.42 496.596 257.892V239.807C497.383 213.859 475.366 191.843 441.555 179.262Z" fill="white"/>
<path d="M351.131 234.303C351.131 244.525 345.627 253.174 338.55 253.174C331.473 253.174 325.969 244.525 325.969 234.303C325.969 224.081 331.473 215.432 338.55 215.432C345.627 215.432 351.131 224.081 351.131 234.303Z" fill="white"/>
<path d="M438.41 234.303C438.41 244.525 432.906 253.174 425.829 253.174C418.753 253.174 413.249 244.525 413.249 234.303C413.249 224.081 418.753 215.432 425.829 215.432C432.906 215.432 438.41 224.081 438.41 234.303Z" fill="white"/>
</g>
</g>
<defs>
<linearGradient id="paint0_linear_2036_933" x1="89.0667" y1="80.5655" x2="632.95" y2="403.826" gradientUnits="userSpaceOnUse">
<stop stop-color="#D1884F"/>
<stop offset="1" stop-color="#6D0115"/>
</linearGradient>
<clipPath id="clip0_2036_933">
<rect width="488" height="311" rx="42" fill="white"/>
</clipPath>
</defs>
</svg>
