<svg width="42" height="42" viewBox="0 0 42 42" fill="none" xmlns="http://www.w3.org/2000/svg">
<path fill-rule="evenodd" clip-rule="evenodd" d="M7.40028 6.49147C6.75113 3.11591 9.34772 0 12.7233 0C15.7094 0 18.1761 2.46676 18.1761 5.45283V12.204C18.9551 12.204 19.7341 12.0741 20.513 12.0741C21.292 12.0741 21.9412 12.0741 22.7201 12.204V5.45283C22.7201 2.46676 25.1869 0 28.173 0C31.5485 0 34.1451 3.11591 33.6258 6.49147L32.1977 14.4111C37.261 16.6182 41.1559 20.513 41.1559 25.3167V28.3028C41.1559 32.3275 38.5593 35.7031 34.7943 37.9102C31.0292 40.2471 26.0957 41.5454 20.513 41.5454C14.9304 41.5454 9.99686 40.2471 6.23181 37.9102C2.59659 35.7031 0 32.3275 0 28.3028V25.3167C0 20.513 3.76505 16.6182 8.8284 14.4111L7.40028 6.49147ZM30.2503 15.4497L31.938 6.10198C32.3275 3.76505 30.6397 1.55795 28.173 1.55795C26.0957 1.55795 24.4079 3.24574 24.4079 5.32301V13.8917C23.8886 13.7619 23.2395 13.7619 22.7201 13.7619C21.9412 13.7619 21.292 13.6321 20.513 13.6321C19.7341 13.6321 18.9551 13.6321 18.1761 13.7619C17.6568 13.7619 17.0077 13.8917 16.4883 13.8917V5.45283C16.4883 3.37556 14.8006 1.68778 12.7233 1.68778C10.3864 1.68778 8.56874 3.89488 9.08806 6.23181L10.7758 15.5795C5.32301 17.6568 1.68778 21.292 1.68778 25.4466V28.4326C1.68778 34.7943 10.1267 39.9875 20.513 39.9875C30.8994 39.9875 39.3383 34.7943 39.3383 28.4326V25.4466C39.4681 21.1622 35.8329 17.527 30.2503 15.4497Z" fill="#633001"/>
<path d="M39.4681 28.3028C39.4681 34.6645 31.0292 39.8576 20.6429 39.8576C10.2565 39.8576 1.81761 34.6645 1.81761 28.3028V25.3167H39.598V28.3028H39.4681Z" fill="#FEDC90"/>
<path fill-rule="evenodd" clip-rule="evenodd" d="M9.08806 6.23181C8.56874 3.89488 10.3864 1.68778 12.7233 1.68778C14.8006 1.68778 16.4883 3.37556 16.4883 5.45283V14.0216C17.7866 13.8917 19.0849 13.7619 20.513 13.7619C21.8113 13.7619 23.1096 13.8917 24.4079 14.0216V5.45283C24.4079 3.37556 26.0957 1.68778 28.173 1.68778C30.5099 1.68778 32.3275 3.89488 31.938 6.23181L30.2503 15.5795C35.7031 17.6568 39.4681 21.292 39.4681 25.4466C39.4681 31.8082 31.0292 37.0014 20.6429 37.0014C10.2565 37.0014 1.81761 31.8082 1.81761 25.4466C1.81761 21.292 5.45283 17.6568 10.9057 15.5795L9.08806 6.23181Z" fill="#D1884F"/>
<path d="M15.3199 24.5378C15.3199 26.2255 14.4111 27.6537 13.2426 27.6537C12.0741 27.6537 11.1653 26.2255 11.1653 24.5378C11.1653 22.85 12.0741 21.4219 13.2426 21.4219C14.4111 21.4219 15.3199 22.85 15.3199 24.5378Z" fill="#633001"/>
<path d="M29.7309 24.5378C29.7309 26.2255 28.8221 27.6537 27.6537 27.6537C26.4852 27.6537 25.5764 26.2255 25.5764 24.5378C25.5764 22.85 26.4852 21.4219 27.6537 21.4219C28.8221 21.4219 29.7309 22.85 29.7309 24.5378Z" fill="#633001"/>
</svg>
