<svg width="42" height="45" viewBox="0 0 42 45" fill="none" xmlns="http://www.w3.org/2000/svg">
<path fill-rule="evenodd" clip-rule="evenodd" d="M26.5042 2.00966C26.5042 0.899754 27.3941 0 28.492 0H39.0936C40.1915 0 41.0814 0.899754 41.0814 2.00966V12.7278C41.0814 13.8377 40.1915 14.7375 39.0936 14.7375C37.9958 14.7375 37.1058 13.8377 37.1058 12.7278V4.01931H28.492C27.3941 4.01931 26.5042 3.11956 26.5042 2.00966Z" fill="#1E1E1E"/>
<path fill-rule="evenodd" clip-rule="evenodd" d="M40.3444 0.447728C41.1977 1.14608 41.3295 2.41153 40.6387 3.2742L29.3744 17.3418C28.6837 18.2045 27.432 18.3377 26.5787 17.6393C25.7254 16.941 25.5937 15.6755 26.2844 14.8129L37.5487 0.745251C38.2394 -0.117415 39.4911 -0.250621 40.3444 0.447728Z" fill="#1E1E1E"/>
<path fill-rule="evenodd" clip-rule="evenodd" d="M13.9951 30.0635C14.7714 30.8483 14.7714 32.1207 13.9951 32.9056L3.39341 43.6237C2.61712 44.4085 1.35851 44.4085 0.582217 43.6237C-0.194072 42.8389 -0.194072 41.5665 0.582217 40.7816L11.1839 30.0635C11.9602 29.2786 13.2188 29.2786 13.9951 30.0635Z" fill="#1E1E1E"/>
<path fill-rule="evenodd" clip-rule="evenodd" d="M39.0936 29.4749C40.1915 29.4749 41.0814 30.3746 41.0814 31.4845V42.2027C41.0814 43.3126 40.1915 44.2123 39.0936 44.2123H28.492C27.3941 44.2123 26.5042 43.3126 26.5042 42.2027C26.5042 41.0928 27.3941 40.193 28.492 40.193H37.1058V31.4845C37.1058 30.3746 37.9958 29.4749 39.0936 29.4749Z" fill="#1E1E1E"/>
<path fill-rule="evenodd" clip-rule="evenodd" d="M0.582217 3.26806C1.35851 2.48324 2.61712 2.48324 3.39341 3.26806L40.4993 40.7817C41.2755 41.5665 41.2755 42.8389 40.4993 43.6237C39.723 44.4086 38.4644 44.4086 37.6881 43.6237L0.582217 6.11014C-0.194072 5.32532 -0.194072 4.05288 0.582217 3.26806Z" fill="#1E1E1E"/>
</svg>
