<svg width="103" height="102" viewBox="0 0 103 102" fill="none" xmlns="http://www.w3.org/2000/svg">
<path fill-rule="evenodd" clip-rule="evenodd" d="M88.9585 14.0292C91.2493 13.1469 93.5886 15.0192 93.3278 17.3343L93.2477 17.773L76.0811 85.773C75.5122 88.0264 72.82 88.896 71.0279 87.5523L70.6824 87.2538L51.8477 68.6034L41.2001 82.6624C39.7396 84.5909 36.7922 84.2524 35.7529 82.1926L35.5715 81.7579L27.4067 57.5067L11.4356 49.6009C9.08533 48.4372 9.09584 45.1947 11.2746 43.9818L11.7085 43.7792L88.9585 14.0292ZM85.4901 22.2019L20.8061 47.1154L31.4812 52.399C32.0921 52.7014 32.5858 53.1862 32.8971 53.7786L33.0953 54.242L39.7366 73.9712L47.2514 64.0517L44.9324 61.7538C43.7897 60.6222 43.6858 58.8514 44.6208 57.6035L44.9324 57.246L62.0991 40.246C63.3561 39.0012 65.3941 39.0012 66.6511 40.246C67.7938 41.3777 67.8977 43.1485 66.9628 44.3963L66.6511 44.7538L51.7619 59.4999L71.2117 78.7609L85.4901 22.2019Z" fill="white"/>
</svg>
