<svg width="102" height="102" viewBox="0 0 102 102" fill="none" xmlns="http://www.w3.org/2000/svg">
<path fill-rule="evenodd" clip-rule="evenodd" d="M87.88 35.5782L87.9005 33.4925L87.9213 33.7731C87.9297 33.8274 87.9398 33.838 87.9479 33.8349L89.4571 30.8274L91.3835 27.0647L92.5878 24.6205L93.1193 23.4943C94.1355 21.304 94.8712 19.4823 95.3261 17.9518L95.423 17.589L95.4509 17.5307C96.1296 15.6424 94.9001 13.2285 92.4395 13.2285L91.9667 13.2636L91.5129 13.3659L91.0412 13.5537C90.2394 13.9466 89.4133 14.3044 88.5369 14.6411L86.6732 15.3029L85.079 15.8003L83.0468 16.378L80.616 17.045L80.0975 16.5915C74.7729 12.1975 67.5268 11.6732 59.961 14.5062L59.0757 14.8601C51.7974 17.958 47.023 24.735 46.7657 32.483L46.7563 34.385L45.9869 34.3457C34.9297 33.5325 25.1444 27.9992 18.5355 18.768C17.1777 16.8715 14.3095 17.0277 13.1658 19.0606L12.7732 19.8085L12.5703 20.2201C9.59648 26.3678 7.63557 33.8681 8.35528 41.7699L8.47657 42.8939C9.68723 52.5822 15.0525 60.8783 25.2476 67.0062L26.3775 67.6625L25.6429 68.0742C19.3936 71.444 13.7568 72.9293 7.56775 72.6885C4.20069 72.5574 2.95965 77.0597 5.91834 78.6723C20.9764 86.8796 37.1098 89.4074 50.9769 85.3819C67.8866 80.4696 80.7487 67.8115 85.6738 50.2793C86.9978 45.4741 87.7369 40.5416 87.88 35.5782ZM77.3082 22.7376C78.1284 23.6631 79.4099 24.0307 80.5959 23.6807L85.5702 22.2926L86.7998 21.9368L86.0458 23.4874L82.5218 30.3945L82.0931 31.2835C81.68 32.1817 81.5542 32.6462 81.5331 33.2323L81.5299 33.4926C81.5581 38.5811 80.8858 43.6572 79.532 48.5706C75.2152 63.9373 64.021 74.954 49.1991 79.2598L47.8901 79.6152C39.6237 81.7064 30.3701 81.1932 21.0591 78.2573L19.1865 77.633L20.2593 77.3164C24.951 75.8288 29.6432 73.4021 34.7109 70.0264C36.8106 68.6277 36.5303 65.4599 34.2176 64.4516C21.4657 58.8924 15.5888 50.9061 14.704 41.1917L14.6106 39.7908C14.4321 35.5951 15.1537 31.4742 16.3864 27.7398L16.7555 26.6798L16.9086 26.8582C25.4101 36.0978 37.1738 41.1387 50.0253 40.81C51.7534 40.7658 53.1313 39.3522 53.1313 37.6235V33.3735C53.0526 27.6116 56.6083 22.5689 62.1966 20.4764C68.4899 18.1198 73.8506 18.8358 77.3082 22.7376Z" fill="white"/>
</svg>
