<svg width="37" height="42" viewBox="0 0 37 42" fill="none" xmlns="http://www.w3.org/2000/svg">
<path d="M14.297 9.55235C13.8421 9.48736 13.8205 9.4657 14.0371 9.44404C14.4486 9.37906 15.4017 9.4657 16.0732 9.61733C17.6327 9.98556 19.0407 10.9386 20.5353 12.6065L20.9252 13.0614L21.4883 12.9747C23.8927 12.5848 26.362 12.8881 28.4197 13.8412C28.9829 14.1011 29.871 14.6209 29.9793 14.7509C30.0226 14.7942 30.0876 15.0758 30.1309 15.3574C30.2826 16.3755 30.2176 17.1336 29.8927 17.7184C29.7194 18.0433 29.7194 18.13 29.8277 18.4116C29.9143 18.6282 30.1743 18.7798 30.4125 18.7798C30.9324 18.7798 31.4739 17.9567 31.7338 16.8087L31.8421 16.3538L32.0371 16.5704C33.1418 17.8051 34.0082 19.5162 34.1382 20.7292L34.1815 21.0542L33.9865 20.7726C33.6616 20.2744 33.3584 19.9495 32.9468 19.6679C32.2104 19.1697 31.4306 19.0181 29.3728 18.9097C27.51 18.8014 26.4486 18.6498 25.4089 18.3032C23.6327 17.7184 22.723 16.9603 20.6219 14.1661C19.6905 12.9314 19.1057 12.2599 18.5208 11.6968C17.2428 10.4621 15.9649 9.81227 14.297 9.55235Z" fill="white"/>
<path d="M30.4342 12.3032C30.4775 11.4801 30.5858 10.9386 30.8241 10.4404C30.9107 10.2455 30.9974 10.0722 31.019 10.0722C31.0407 10.0722 30.9974 10.2238 30.9324 10.3971C30.7591 10.8736 30.7374 11.5451 30.8457 12.3032C30.9974 13.278 31.0623 13.4079 32.102 14.4693C32.5786 14.9675 33.1418 15.5957 33.3584 15.8556L33.7266 16.3321L33.3584 15.9856C32.9035 15.5523 31.8638 14.7292 31.6255 14.6209C31.4739 14.5343 31.4522 14.5343 31.3439 14.6426C31.2573 14.7292 31.2356 14.8592 31.2356 15.4874C31.214 16.4621 31.084 17.0686 30.7591 17.6968C30.5858 18.0217 30.5641 17.9567 30.7158 17.5884C30.8241 17.3069 30.8457 17.1769 30.8457 16.2455C30.8457 14.361 30.6291 13.9061 29.3078 13.148C28.9829 12.9531 28.4197 12.6715 28.0948 12.5199C27.7483 12.3682 27.4883 12.2383 27.51 12.2383C27.5533 12.1949 28.8313 12.5632 29.3295 12.7798C30.0876 13.083 30.2176 13.1047 30.3042 13.083C30.3692 13.0181 30.4125 12.8448 30.4342 12.3032Z" fill="white"/>
<path d="M15.1851 15.5307C14.2753 14.2744 13.6905 12.3249 13.8205 10.8736L13.8638 10.4188L14.0804 10.4621C14.4703 10.5271 15.1418 10.787 15.4667 10.9819C16.3331 11.5018 16.723 12.2166 17.0912 13.9928C17.1995 14.5126 17.3511 15.1191 17.4161 15.3141C17.5244 15.639 17.936 16.3971 18.2826 16.8736C18.5208 17.2202 18.3692 17.3935 17.8277 17.3502C17.0046 17.2635 15.8999 16.5054 15.1851 15.5307Z" fill="white"/>
<path d="M29.3295 24.9531C25.0407 23.2202 23.5244 21.7256 23.5244 19.1913C23.5244 18.8231 23.5461 18.5199 23.5461 18.5199C23.5678 18.5199 23.7194 18.6498 23.9143 18.8014C24.7807 19.4946 25.7555 19.7978 28.4631 20.1877C30.0443 20.426 30.954 20.5993 31.7771 20.8809C34.3981 21.7473 36.0226 23.5235 36.4125 25.9278C36.5208 26.6209 36.4558 27.9422 36.2826 28.6354C36.1309 29.1769 35.6977 30.1733 35.5894 30.1949C35.5678 30.1949 35.5244 30.0866 35.5244 29.9134C35.4811 29.0036 35.0262 28.1372 34.2681 27.4657C33.3584 26.6859 32.1887 26.1011 29.3295 24.9531Z" fill="white"/>
<path d="M26.297 25.6679C26.2537 25.343 26.1454 24.9314 26.0804 24.7581L25.9721 24.4332L26.167 24.6715C26.4486 24.9964 26.6652 25.3863 26.8602 25.9278C27.0118 26.3393 27.0118 26.4693 27.0118 27.1408C27.0118 27.7906 26.9901 27.9422 26.8602 28.3105C26.6436 28.8953 26.3836 29.3069 25.9504 29.7617C25.1706 30.5632 24.1526 30.9964 22.7013 31.1913C22.4414 31.213 21.7049 31.278 21.0551 31.3213C19.4306 31.4079 18.3475 31.5812 17.3728 31.9278C17.2428 31.9711 17.1129 32.0144 17.0912 31.9928C17.0479 31.9495 17.7194 31.5596 18.2609 31.2996C19.019 30.9314 19.7988 30.7365 21.51 30.4332C22.3548 30.3032 23.2212 30.13 23.4378 30.0433C25.5822 29.3718 26.6436 27.704 26.297 25.6679Z" fill="white"/>
<path d="M28.2681 29.1552C27.7049 27.9206 27.575 26.7509 27.8782 25.6462C27.9215 25.5379 27.9649 25.4296 28.0082 25.4296C28.0515 25.4296 28.1815 25.4946 28.3114 25.5812C28.5714 25.7545 29.1129 26.0578 30.4992 26.8159C32.2537 27.769 33.2501 28.5054 33.9432 29.3502C34.5497 30.0866 34.9179 30.9314 35.0912 31.9711C35.1995 32.556 35.1345 33.9639 34.9829 34.5487C34.5064 36.3899 33.4233 37.8628 31.8421 38.7076C31.6039 38.8375 31.4089 38.9242 31.3872 38.9242C31.3656 38.9242 31.4522 38.7076 31.5822 38.4477C32.102 37.343 32.167 36.2816 31.7771 35.0903C31.5389 34.3538 31.0407 33.4657 30.0443 31.9711C28.8529 30.2383 28.5714 29.7834 28.2681 29.1552Z" fill="white"/>
<path d="M12.1309 35.7834C13.7338 34.4404 15.7049 33.4874 17.5244 33.1841C18.3042 33.0542 19.6039 33.0975 20.3187 33.2924C21.4667 33.5957 22.5064 34.2455 23.0479 35.0469C23.5678 35.8267 23.806 36.4982 24.0443 37.9928C24.1309 38.5776 24.2392 39.1841 24.2609 39.3141C24.4342 40.0939 24.7807 40.7004 25.214 41.0253C25.8854 41.5235 27.0551 41.5451 28.2031 41.1119C28.3981 41.0469 28.5714 40.982 28.5714 41.0036C28.6147 41.0469 28.0298 41.4368 27.64 41.6318C27.0984 41.9134 26.6652 42 26.0804 42C25.0407 42 24.1526 41.4585 23.4378 40.3754C23.2862 40.1588 22.9829 39.5307 22.723 38.9458C21.9649 37.1913 21.575 36.6715 20.6869 36.0866C19.9071 35.5884 18.9107 35.4801 18.1526 35.8484C17.1562 36.3249 16.8963 37.6029 17.5894 38.3827C17.871 38.7076 18.3909 38.9675 18.8241 39.0325C19.6255 39.1408 20.3187 38.5126 20.3187 37.7112C20.3187 37.1913 20.1237 36.8881 19.6039 36.6498C18.9107 36.3466 18.1526 36.6931 18.1743 37.3646C18.1743 37.6462 18.3042 37.8195 18.5858 37.9495C18.7591 38.0361 18.7591 38.0361 18.6291 38.0144C18.001 37.8845 17.8493 37.1047 18.3475 36.6065C18.954 36 20.232 36.2599 20.6652 37.1047C20.8385 37.4513 20.8602 38.1444 20.7085 38.5776C20.3403 39.5307 19.3006 40.0289 18.2392 39.7473C17.5244 39.5523 17.2212 39.3574 16.3548 38.4693C14.8385 36.9097 14.2537 36.6065 12.0876 36.2816L11.6761 36.2166L12.1309 35.7834Z" fill="white"/>
<path fill-rule="evenodd" clip-rule="evenodd" d="M0.737426 0.931408C5.78436 7.06137 13.5605 16.5921 13.9504 17.1119C14.2753 17.5451 14.1454 17.9567 13.6039 18.2599C13.3006 18.4332 12.6724 18.6065 12.3692 18.6065C12.0226 18.6065 11.6111 18.4332 11.3295 18.1516C11.1345 17.9567 10.2898 16.722 8.38364 13.7545C6.93237 11.4801 5.69771 9.59567 5.67605 9.57401C5.58941 9.53069 5.58941 9.53069 8.23201 14.2527C9.89988 17.2202 10.4414 18.2816 10.4414 18.4116C10.4414 18.6931 10.3548 18.8448 10.0082 19.2347C9.42335 19.8845 9.16342 20.6209 8.96847 22.1588C8.75187 23.87 8.16703 25.083 6.49916 27.1408C5.52443 28.3538 5.37281 28.5704 5.13454 29.0686C4.83129 29.6751 4.74465 30.0217 4.70132 30.8014C4.658 31.6245 4.74465 32.1444 4.98291 32.9242C5.19952 33.6173 5.43779 34.0722 6.02262 34.9603C6.52082 35.7401 6.82407 36.3249 6.82407 36.5415C6.82407 36.7148 6.86739 36.7148 7.64717 36.5415C9.50999 36.1083 11.0479 35.3718 11.8927 34.4621C12.4125 33.8989 12.5425 33.5957 12.5425 32.8159C12.5425 32.3177 12.5208 32.2094 12.3909 31.9061C12.1742 31.4296 11.7627 31.0397 10.8746 30.4332C9.70494 29.6318 9.20674 28.982 9.07678 28.1155C8.96847 27.3791 9.09844 26.8809 9.74826 25.5162C10.4197 24.1083 10.593 23.5235 10.7013 22.0939C10.7663 21.1841 10.8746 20.8159 11.1345 20.5343C11.4161 20.231 11.6544 20.1227 12.3259 20.0361C13.4306 19.8845 14.1454 19.6029 14.7085 19.0614C15.2067 18.6065 15.4233 18.1516 15.445 17.4801L15.4667 16.9819L15.1851 16.6787C14.167 15.509 0.0659454 0 0.000963476 0C-0.0206972 0 0.325873 0.411552 0.737426 0.931408ZM7.38725 31.7329C7.62551 31.3213 7.49555 30.8014 7.10566 30.5415C6.73743 30.3032 6.17425 30.4116 6.17425 30.7365C6.17425 30.8231 6.21757 30.9097 6.34753 30.9531C6.54248 31.0614 6.56414 31.1697 6.41252 31.4079C6.26089 31.6462 6.26089 31.8628 6.45584 32.0144C6.75909 32.2527 7.17064 32.1227 7.38725 31.7329Z" fill="white"/>
<path fill-rule="evenodd" clip-rule="evenodd" d="M16.1598 20.3394C15.64 20.491 15.1418 21.0542 14.9901 21.6173C14.9035 21.9639 14.9468 22.5921 15.0984 22.787C15.3367 23.0903 15.5533 23.1769 16.1598 23.1769C17.3511 23.1769 18.3692 22.657 18.4775 22.0289C18.5858 21.509 18.1309 20.7942 17.5028 20.4693C17.1779 20.296 16.5064 20.231 16.1598 20.3394ZM17.5461 21.4224C17.7194 21.1625 17.6544 20.8809 17.3295 20.6859C16.7446 20.3177 15.8566 20.6209 15.8566 21.1841C15.8566 21.4657 16.3114 21.769 16.7446 21.769C17.0262 21.769 17.4161 21.5957 17.5461 21.4224Z" fill="white"/>
</svg>
