<svg width="488" height="311" viewBox="0 0 488 311" fill="none" xmlns="http://www.w3.org/2000/svg">
<g clip-path="url(#clip0_204_914)">
<rect width="487.584" height="311.075" rx="42" fill="#350939"/>
<mask id="path-3-inside-1_204_914" fill="white">
<path d="M332.126 109.511C328.496 108.993 328.323 108.82 330.051 108.647C333.336 108.128 340.941 108.82 346.3 110.03C358.746 112.968 369.981 120.574 381.908 133.884L385.02 137.514L389.514 136.822C408.701 133.711 428.407 136.131 444.828 143.737C449.322 145.811 456.41 149.96 457.274 150.997C457.62 151.342 458.138 153.59 458.484 155.837C459.694 163.961 459.175 170.011 456.582 174.678C455.2 177.271 455.2 177.962 456.064 180.209C456.755 181.938 458.83 183.148 460.731 183.148C464.88 183.148 469.201 176.579 471.275 167.418L472.14 163.788L473.695 165.517C482.511 175.369 489.425 189.025 490.462 198.705L490.808 201.298L489.252 199.051C486.66 195.075 484.24 192.482 480.955 190.235C475.078 186.259 468.855 185.049 452.434 184.185C437.568 183.321 429.098 182.111 420.801 179.345C406.627 174.678 399.367 168.628 382.6 146.33C375.167 136.477 370.5 131.118 365.833 126.624C355.634 116.771 345.436 111.585 332.126 109.511Z"/>
<path d="M460.904 131.464C461.25 124.895 462.114 120.574 464.015 116.598C464.707 115.042 465.398 113.66 465.571 113.66C465.744 113.66 465.398 114.87 464.88 116.252C463.497 120.055 463.324 125.414 464.188 131.464C465.398 139.242 465.917 140.28 474.214 148.75C478.017 152.725 482.511 157.738 484.24 159.812L487.178 163.615L484.24 160.85C480.61 157.392 472.312 150.824 470.411 149.96C469.201 149.268 469.028 149.268 468.164 150.132C467.472 150.824 467.3 151.861 467.3 156.874C467.127 164.652 466.09 169.492 463.497 174.505C462.114 177.098 461.941 176.579 463.151 173.641C464.015 171.394 464.188 170.357 464.188 162.924C464.188 147.885 462.46 144.255 451.915 138.205C449.322 136.65 444.828 134.402 442.235 133.192C439.47 131.982 437.395 130.945 437.568 130.945C437.914 130.6 448.112 133.538 452.088 135.267C458.138 137.687 459.175 137.86 459.867 137.687C460.385 137.168 460.731 135.785 460.904 131.464Z"/>
<path d="M339.213 157.22C331.953 147.194 327.286 131.637 328.323 120.055L328.668 116.425L330.397 116.771C333.508 117.29 338.867 119.364 341.46 120.92C348.374 125.068 351.486 130.772 354.424 144.947C355.288 149.095 356.498 153.935 357.017 155.491C357.881 158.084 361.166 164.134 363.931 167.937C365.833 170.702 364.623 172.085 360.301 171.739C353.733 171.048 344.917 164.998 339.213 157.22Z"/>
<path d="M452.088 232.412C417.863 218.584 405.763 206.657 405.763 186.432C405.763 183.494 405.935 181.074 405.935 181.074C406.108 181.074 407.318 182.111 408.874 183.321C415.788 188.852 423.567 191.272 445.174 194.384C457.792 196.285 465.052 197.668 471.621 199.915C492.537 206.829 505.501 221.004 508.612 240.191C509.477 245.722 508.958 256.266 507.575 261.798C506.365 266.119 502.908 274.071 502.044 274.244C501.871 274.244 501.525 273.379 501.525 271.996C501.179 264.736 497.549 257.822 491.5 252.464C484.24 246.241 474.905 241.574 452.088 232.412Z"/>
<path d="M427.888 238.116C427.543 235.524 426.678 232.239 426.16 230.857L425.295 228.264L426.851 230.165C429.098 232.758 430.827 235.869 432.382 240.191C433.592 243.475 433.592 244.512 433.592 249.871C433.592 255.056 433.42 256.266 432.382 259.205C430.654 263.872 428.58 267.156 425.123 270.786C418.9 277.182 410.775 280.639 399.194 282.195C397.12 282.368 391.243 282.886 386.057 283.232C373.093 283.924 364.45 285.306 356.671 288.072C355.634 288.418 354.597 288.764 354.424 288.591C354.078 288.245 359.437 285.134 363.758 283.059C369.808 280.121 376.031 278.565 389.687 276.145C396.428 275.108 403.343 273.725 405.071 273.034C422.184 267.675 430.654 254.365 427.888 238.116Z"/>
<path d="M443.618 265.946C439.124 256.094 438.087 246.759 440.507 237.944C440.852 237.079 441.198 236.215 441.544 236.215C441.89 236.215 442.927 236.734 443.964 237.425C446.038 238.808 450.36 241.228 461.422 247.278C475.424 254.884 483.375 260.761 488.907 267.502C493.747 273.379 496.685 280.121 498.068 288.418C498.932 293.085 498.414 304.321 497.204 308.988C493.401 323.681 484.758 335.435 472.14 342.176C470.238 343.213 468.682 343.905 468.51 343.905C468.337 343.905 469.028 342.176 470.065 340.102C474.214 331.286 474.732 322.816 471.621 313.309C469.72 307.432 465.744 300.345 457.792 288.418C448.285 274.589 446.038 270.959 443.618 265.946Z"/>
<path d="M314.84 318.841C327.631 308.123 343.361 300.518 357.881 298.098C364.104 297.061 374.475 297.406 380.18 298.962C389.341 301.382 397.638 306.568 401.96 312.963C406.108 319.186 408.01 324.545 409.911 336.472C410.603 341.139 411.467 345.979 411.64 347.016C413.023 353.239 415.788 358.079 419.245 360.672C424.604 364.648 433.938 364.82 443.1 361.363C444.655 360.845 446.038 360.326 446.038 360.499C446.384 360.845 441.717 363.956 438.605 365.512C434.284 367.759 430.827 368.45 426.16 368.45C417.863 368.45 410.775 364.129 405.071 355.486C403.861 353.758 401.441 348.745 399.367 344.078C393.317 330.076 390.205 325.928 383.118 321.261C376.895 317.285 368.944 316.421 362.894 319.359C354.943 323.162 352.868 333.361 358.4 339.583C360.647 342.176 364.796 344.251 368.253 344.769C374.648 345.633 380.18 340.621 380.18 334.225C380.18 330.076 378.624 327.656 374.475 325.755C368.944 323.335 362.894 326.101 363.067 331.459C363.067 333.706 364.104 335.089 366.351 336.126C367.734 336.818 367.734 336.818 366.697 336.645C361.684 335.608 360.474 329.385 364.45 325.409C369.29 320.569 379.488 322.643 382.945 329.385C384.328 332.151 384.501 337.682 383.291 341.139C380.353 348.745 372.055 352.72 363.586 350.473C357.881 348.918 355.461 347.362 348.547 340.275C336.447 327.829 331.78 325.409 314.494 322.816L311.21 322.298L314.84 318.841Z"/>
<path fill-rule="evenodd" clip-rule="evenodd" d="M223.917 40.7141C264.193 89.6325 326.248 165.69 329.36 169.838C331.953 173.295 330.916 176.579 326.594 178.999C324.174 180.382 319.161 181.765 316.741 181.765C313.976 181.765 310.691 180.382 308.444 178.135C306.889 176.579 300.147 166.727 284.936 143.045C273.354 124.895 263.501 109.857 263.329 109.684C262.637 109.338 262.637 109.338 283.726 147.021C297.036 170.702 301.357 179.172 301.357 180.209C301.357 182.457 300.666 183.667 297.9 186.778C293.233 191.964 291.159 197.841 289.603 210.114C287.874 223.769 283.207 233.449 269.897 249.871C262.119 259.551 260.909 261.279 259.007 265.255C256.587 270.095 255.896 272.861 255.55 279.084C255.204 285.652 255.896 289.801 257.797 296.023C259.526 301.555 261.427 305.185 266.094 312.272C270.07 318.495 272.49 323.162 272.49 324.891C272.49 326.273 272.836 326.273 279.059 324.891C293.924 321.433 306.197 315.556 312.939 308.296C317.087 303.802 318.124 301.382 318.124 295.159C318.124 291.184 317.951 290.319 316.914 287.899C315.186 284.096 311.901 280.985 304.814 276.145C295.48 269.749 291.504 264.564 290.467 257.649C289.603 251.772 290.64 247.796 295.826 236.906C301.184 225.671 302.567 221.004 303.431 209.595C303.95 202.335 304.814 199.397 306.889 197.149C309.136 194.729 311.037 193.865 316.396 193.174C325.211 191.964 330.916 189.717 335.41 185.395C339.386 181.765 341.114 178.135 341.287 172.777L341.46 168.801L339.213 166.381C331.088 157.047 218.559 33.2812 218.04 33.2812C217.867 33.2812 220.633 36.5655 223.917 40.7141ZM276.984 286.516C278.886 283.232 277.849 279.084 274.737 277.009C271.799 275.108 267.304 275.972 267.304 278.565C267.304 279.256 267.65 279.948 268.687 280.294C270.243 281.158 270.416 282.022 269.206 283.924C267.996 285.825 267.996 287.554 269.551 288.764C271.971 290.665 275.256 289.628 276.984 286.516Z"/>
<path fill-rule="evenodd" clip-rule="evenodd" d="M346.991 195.594C342.843 196.804 338.867 201.298 337.657 205.792C336.966 208.558 337.311 213.571 338.521 215.127C340.423 217.547 342.151 218.238 346.991 218.238C356.498 218.238 364.623 214.089 365.487 209.077C366.351 204.928 362.721 199.224 357.708 196.631C355.116 195.248 349.757 194.729 346.991 195.594ZM358.054 204.237C359.437 202.162 358.918 199.915 356.326 198.359C351.658 195.421 344.571 197.841 344.571 202.335C344.571 204.582 348.201 207.002 351.658 207.002C353.906 207.002 357.017 205.619 358.054 204.237Z"/>
</mask>
<path d="M332.126 109.511C328.496 108.993 328.323 108.82 330.051 108.647C333.336 108.128 340.941 108.82 346.3 110.03C358.746 112.968 369.981 120.574 381.908 133.884L385.02 137.514L389.514 136.822C408.701 133.711 428.407 136.131 444.828 143.737C449.322 145.811 456.41 149.96 457.274 150.997C457.62 151.342 458.138 153.59 458.484 155.837C459.694 163.961 459.175 170.011 456.582 174.678C455.2 177.271 455.2 177.962 456.064 180.209C456.755 181.938 458.83 183.148 460.731 183.148C464.88 183.148 469.201 176.579 471.275 167.418L472.14 163.788L473.695 165.517C482.511 175.369 489.425 189.025 490.462 198.705L490.808 201.298L489.252 199.051C486.66 195.075 484.24 192.482 480.955 190.235C475.078 186.259 468.855 185.049 452.434 184.185C437.568 183.321 429.098 182.111 420.801 179.345C406.627 174.678 399.367 168.628 382.6 146.33C375.167 136.477 370.5 131.118 365.833 126.624C355.634 116.771 345.436 111.585 332.126 109.511Z" stroke="#8440AC" stroke-width="2" mask="url(#path-3-inside-1_204_914)"/>
<path d="M460.904 131.464C461.25 124.895 462.114 120.574 464.015 116.598C464.707 115.042 465.398 113.66 465.571 113.66C465.744 113.66 465.398 114.87 464.88 116.252C463.497 120.055 463.324 125.414 464.188 131.464C465.398 139.242 465.917 140.28 474.214 148.75C478.017 152.725 482.511 157.738 484.24 159.812L487.178 163.615L484.24 160.85C480.61 157.392 472.312 150.824 470.411 149.96C469.201 149.268 469.028 149.268 468.164 150.132C467.472 150.824 467.3 151.861 467.3 156.874C467.127 164.652 466.09 169.492 463.497 174.505C462.114 177.098 461.941 176.579 463.151 173.641C464.015 171.394 464.188 170.357 464.188 162.924C464.188 147.885 462.46 144.255 451.915 138.205C449.322 136.65 444.828 134.402 442.235 133.192C439.47 131.982 437.395 130.945 437.568 130.945C437.914 130.6 448.112 133.538 452.088 135.267C458.138 137.687 459.175 137.86 459.867 137.687C460.385 137.168 460.731 135.785 460.904 131.464Z" stroke="#8440AC" stroke-width="2" mask="url(#path-3-inside-1_204_914)"/>
<path d="M339.213 157.22C331.953 147.194 327.286 131.637 328.323 120.055L328.668 116.425L330.397 116.771C333.508 117.29 338.867 119.364 341.46 120.92C348.374 125.068 351.486 130.772 354.424 144.947C355.288 149.095 356.498 153.935 357.017 155.491C357.881 158.084 361.166 164.134 363.931 167.937C365.833 170.702 364.623 172.085 360.301 171.739C353.733 171.048 344.917 164.998 339.213 157.22Z" stroke="#8440AC" stroke-width="2" mask="url(#path-3-inside-1_204_914)"/>
<path d="M452.088 232.412C417.863 218.584 405.763 206.657 405.763 186.432C405.763 183.494 405.935 181.074 405.935 181.074C406.108 181.074 407.318 182.111 408.874 183.321C415.788 188.852 423.567 191.272 445.174 194.384C457.792 196.285 465.052 197.668 471.621 199.915C492.537 206.829 505.501 221.004 508.612 240.191C509.477 245.722 508.958 256.266 507.575 261.798C506.365 266.119 502.908 274.071 502.044 274.244C501.871 274.244 501.525 273.379 501.525 271.996C501.179 264.736 497.549 257.822 491.5 252.464C484.24 246.241 474.905 241.574 452.088 232.412Z" stroke="#8440AC" stroke-width="2" mask="url(#path-3-inside-1_204_914)"/>
<path d="M427.888 238.116C427.543 235.524 426.678 232.239 426.16 230.857L425.295 228.264L426.851 230.165C429.098 232.758 430.827 235.869 432.382 240.191C433.592 243.475 433.592 244.512 433.592 249.871C433.592 255.056 433.42 256.266 432.382 259.205C430.654 263.872 428.58 267.156 425.123 270.786C418.9 277.182 410.775 280.639 399.194 282.195C397.12 282.368 391.243 282.886 386.057 283.232C373.093 283.924 364.45 285.306 356.671 288.072C355.634 288.418 354.597 288.764 354.424 288.591C354.078 288.245 359.437 285.134 363.758 283.059C369.808 280.121 376.031 278.565 389.687 276.145C396.428 275.108 403.343 273.725 405.071 273.034C422.184 267.675 430.654 254.365 427.888 238.116Z" stroke="#8440AC" stroke-width="2" mask="url(#path-3-inside-1_204_914)"/>
<path d="M443.618 265.946C439.124 256.094 438.087 246.759 440.507 237.944C440.852 237.079 441.198 236.215 441.544 236.215C441.89 236.215 442.927 236.734 443.964 237.425C446.038 238.808 450.36 241.228 461.422 247.278C475.424 254.884 483.375 260.761 488.907 267.502C493.747 273.379 496.685 280.121 498.068 288.418C498.932 293.085 498.414 304.321 497.204 308.988C493.401 323.681 484.758 335.435 472.14 342.176C470.238 343.213 468.682 343.905 468.51 343.905C468.337 343.905 469.028 342.176 470.065 340.102C474.214 331.286 474.732 322.816 471.621 313.309C469.72 307.432 465.744 300.345 457.792 288.418C448.285 274.589 446.038 270.959 443.618 265.946Z" stroke="#8440AC" stroke-width="2" mask="url(#path-3-inside-1_204_914)"/>
<path d="M314.84 318.841C327.631 308.123 343.361 300.518 357.881 298.098C364.104 297.061 374.475 297.406 380.18 298.962C389.341 301.382 397.638 306.568 401.96 312.963C406.108 319.186 408.01 324.545 409.911 336.472C410.603 341.139 411.467 345.979 411.64 347.016C413.023 353.239 415.788 358.079 419.245 360.672C424.604 364.648 433.938 364.82 443.1 361.363C444.655 360.845 446.038 360.326 446.038 360.499C446.384 360.845 441.717 363.956 438.605 365.512C434.284 367.759 430.827 368.45 426.16 368.45C417.863 368.45 410.775 364.129 405.071 355.486C403.861 353.758 401.441 348.745 399.367 344.078C393.317 330.076 390.205 325.928 383.118 321.261C376.895 317.285 368.944 316.421 362.894 319.359C354.943 323.162 352.868 333.361 358.4 339.583C360.647 342.176 364.796 344.251 368.253 344.769C374.648 345.633 380.18 340.621 380.18 334.225C380.18 330.076 378.624 327.656 374.475 325.755C368.944 323.335 362.894 326.101 363.067 331.459C363.067 333.706 364.104 335.089 366.351 336.126C367.734 336.818 367.734 336.818 366.697 336.645C361.684 335.608 360.474 329.385 364.45 325.409C369.29 320.569 379.488 322.643 382.945 329.385C384.328 332.151 384.501 337.682 383.291 341.139C380.353 348.745 372.055 352.72 363.586 350.473C357.881 348.918 355.461 347.362 348.547 340.275C336.447 327.829 331.78 325.409 314.494 322.816L311.21 322.298L314.84 318.841Z" stroke="#8440AC" stroke-width="2" mask="url(#path-3-inside-1_204_914)"/>
<path fill-rule="evenodd" clip-rule="evenodd" d="M223.917 40.7141C264.193 89.6325 326.248 165.69 329.36 169.838C331.953 173.295 330.916 176.579 326.594 178.999C324.174 180.382 319.161 181.765 316.741 181.765C313.976 181.765 310.691 180.382 308.444 178.135C306.889 176.579 300.147 166.727 284.936 143.045C273.354 124.895 263.501 109.857 263.329 109.684C262.637 109.338 262.637 109.338 283.726 147.021C297.036 170.702 301.357 179.172 301.357 180.209C301.357 182.457 300.666 183.667 297.9 186.778C293.233 191.964 291.159 197.841 289.603 210.114C287.874 223.769 283.207 233.449 269.897 249.871C262.119 259.551 260.909 261.279 259.007 265.255C256.587 270.095 255.896 272.861 255.55 279.084C255.204 285.652 255.896 289.801 257.797 296.023C259.526 301.555 261.427 305.185 266.094 312.272C270.07 318.495 272.49 323.162 272.49 324.891C272.49 326.273 272.836 326.273 279.059 324.891C293.924 321.433 306.197 315.556 312.939 308.296C317.087 303.802 318.124 301.382 318.124 295.159C318.124 291.184 317.951 290.319 316.914 287.899C315.186 284.096 311.901 280.985 304.814 276.145C295.48 269.749 291.504 264.564 290.467 257.649C289.603 251.772 290.64 247.796 295.826 236.906C301.184 225.671 302.567 221.004 303.431 209.595C303.95 202.335 304.814 199.397 306.889 197.149C309.136 194.729 311.037 193.865 316.396 193.174C325.211 191.964 330.916 189.717 335.41 185.395C339.386 181.765 341.114 178.135 341.287 172.777L341.46 168.801L339.213 166.381C331.088 157.047 218.559 33.2812 218.04 33.2812C217.867 33.2812 220.633 36.5655 223.917 40.7141ZM276.984 286.516C278.886 283.232 277.849 279.084 274.737 277.009C271.799 275.108 267.304 275.972 267.304 278.565C267.304 279.256 267.65 279.948 268.687 280.294C270.243 281.158 270.416 282.022 269.206 283.924C267.996 285.825 267.996 287.554 269.551 288.764C271.971 290.665 275.256 289.628 276.984 286.516Z" stroke="#8440AC" stroke-width="2" mask="url(#path-3-inside-1_204_914)"/>
<path fill-rule="evenodd" clip-rule="evenodd" d="M346.991 195.594C342.843 196.804 338.867 201.298 337.657 205.792C336.966 208.558 337.311 213.571 338.521 215.127C340.423 217.547 342.151 218.238 346.991 218.238C356.498 218.238 364.623 214.089 365.487 209.077C366.351 204.928 362.721 199.224 357.708 196.631C355.116 195.248 349.757 194.729 346.991 195.594ZM358.054 204.237C359.437 202.162 358.918 199.915 356.326 198.359C351.658 195.421 344.571 197.841 344.571 202.335C344.571 204.582 348.201 207.002 351.658 207.002C353.906 207.002 357.017 205.619 358.054 204.237Z" stroke="#8440AC" stroke-width="2" mask="url(#path-3-inside-1_204_914)"/>
</g>
<defs>
<clipPath id="clip0_204_914">
<rect width="488" height="311" rx="42" fill="white"/>
</clipPath>
</defs>
</svg>
