<svg width="30" height="28" viewBox="0 0 30 28" fill="none" xmlns="http://www.w3.org/2000/svg">
<path fill-rule="evenodd" clip-rule="evenodd" d="M14.4987 3.5C11.2616 3.5 8.63753 5.98109 8.63753 9.04167C8.63753 12.1022 11.2616 14.5833 14.4987 14.5833C17.7357 14.5833 20.3598 12.1022 20.3598 9.04167C20.3598 5.98109 17.7357 3.5 14.4987 3.5ZM14.4987 5.25C16.7135 5.25 18.5089 6.94759 18.5089 9.04167C18.5089 11.1357 16.7135 12.8333 14.4987 12.8333C12.2839 12.8333 10.4884 11.1357 10.4884 9.04167C10.4884 6.94759 12.2839 5.25 14.4987 5.25ZM22.8216 21.6213C22.6814 18.6785 20.1136 16.3333 16.9665 16.3333H12.0308L11.7625 16.339C8.65004 16.4716 6.16968 18.8994 6.16968 21.875V24.2083L6.17813 24.3271C6.23941 24.7542 6.62661 25.0833 7.09512 25.0833C7.60623 25.0833 8.02056 24.6916 8.02056 24.2083V21.875L8.02691 21.6598C8.14489 19.6659 9.89239 18.0833 12.0308 18.0833H16.9665L17.1941 18.0893C19.303 18.2009 20.9768 19.8531 20.9768 21.875V24.2083L20.9852 24.3271C21.0465 24.7542 21.4337 25.0833 21.9022 25.0833C22.4133 25.0833 22.8277 24.6916 22.8277 24.2083V21.875L22.8216 21.6213Z" fill="white"/>
</svg>
