<svg width="30" height="28" viewBox="0 0 30 28" fill="none" xmlns="http://www.w3.org/2000/svg">
<path fill-rule="evenodd" clip-rule="evenodd" d="M14.9034 4.37554C14.8714 4.37526 14.8393 4.37512 14.8071 4.37512C14.775 4.37512 14.7429 4.37526 14.7108 4.37554C13.6769 6.03417 12.9317 7.8049 12.4754 9.62512H17.1388C16.6825 7.8049 15.9374 6.03417 14.9034 4.37554ZM17.4866 11.3751H12.1277C11.8705 13.1163 11.8705 14.8839 12.1277 16.6251H17.4866C17.7437 14.8839 17.7437 13.1163 17.4866 11.3751ZM19.3539 16.6251C19.5892 14.8825 19.5892 13.1178 19.3539 11.3751H24.6038C24.8534 12.2096 24.987 13.0901 24.987 14.0001C24.987 14.9101 24.8534 15.7907 24.6038 16.6251H19.3539ZM17.1388 18.3751H12.4754C12.9317 20.1953 13.6769 21.9661 14.7108 23.6247C14.7429 23.625 14.775 23.6251 14.8071 23.6251C14.8393 23.6251 14.8714 23.625 14.9034 23.6247C15.9374 21.9661 16.6825 20.1953 17.1388 18.3751ZM17.1625 23.3662C18.0202 21.7679 18.6449 20.0898 19.0365 18.3751H23.877C22.5374 20.8529 20.0953 22.7093 17.1625 23.3662ZM15.29 25.3661C15.4128 25.3831 15.5373 25.3762 15.6559 25.3472C21.9042 24.9355 26.8379 20.0125 26.8379 14.0001C26.8379 7.98759 21.9041 3.06461 15.6557 2.65296C15.5373 2.62403 15.4129 2.6172 15.2902 2.6341C15.13 2.62812 14.9689 2.6251 14.8071 2.6251C14.6453 2.6251 14.4843 2.62812 14.3241 2.6341C14.2013 2.6172 14.077 2.62403 13.9586 2.65296C7.71012 3.06461 2.77637 7.98759 2.77637 14.0001C2.77637 20.0125 7.71002 24.9355 13.9584 25.3472C14.0769 25.3762 14.2014 25.3831 14.3243 25.3661C14.4845 25.3721 14.6454 25.3751 14.8071 25.3751C14.9689 25.3751 15.1298 25.3721 15.29 25.3661ZM17.1625 4.63404C20.0953 5.2909 22.5374 7.14734 23.877 9.62512H19.0365C18.6449 7.91045 18.0202 6.23229 17.1625 4.63404ZM5.73725 9.62512C7.0769 7.14734 9.51894 5.2909 12.4518 4.63404C11.5941 6.23229 10.9694 7.91045 10.5777 9.62512H5.73725ZM5.01045 11.3751H10.2604C10.0251 13.1178 10.0251 14.8825 10.2604 16.6251H5.01045C4.76083 15.7907 4.62725 14.9101 4.62725 14.0001C4.62725 13.0901 4.76083 12.2096 5.01045 11.3751ZM5.73725 18.3751H10.5777C10.9694 20.0898 11.5941 21.7679 12.4518 23.3662C9.51894 22.7093 7.0769 20.8529 5.73725 18.3751Z" fill="white"/>
</svg>
